<svg width="68" height="66" viewBox="0 0 68 66" fill="none" xmlns="http://www.w3.org/2000/svg">
<path d="M34 33C29.325 33 25.3229 31.3844 21.9938 28.1531C18.6646 24.9219 17 21.0375 17 16.5C17 11.9625 18.6646 8.07812 21.9938 4.84687C25.3229 1.61562 29.325 0 34 0C38.675 0 42.6771 1.61562 46.0063 4.84687C49.3354 8.07812 51 11.9625 51 16.5C51 21.0375 49.3354 24.9219 46.0063 28.1531C42.6771 31.3844 38.675 33 34 33ZM0 66V54.45C0 52.1125 0.619792 49.9641 1.85938 48.0047C3.09896 46.0453 4.74583 44.55 6.8 43.5187C11.1917 41.3875 15.6542 39.7891 20.1875 38.7234C24.7208 37.6578 29.325 37.125 34 37.125C38.675 37.125 43.2792 37.6578 47.8125 38.7234C52.3458 39.7891 56.8083 41.3875 61.2 43.5187C63.2542 44.55 64.901 46.0453 66.1406 48.0047C67.3802 49.9641 68 52.1125 68 54.45V66H0ZM8.5 57.75H59.5V54.45C59.5 53.6937 59.3052 53.0062 58.9156 52.3875C58.526 51.7687 58.0125 51.2875 57.375 50.9437C53.55 49.0875 49.6896 47.6953 45.7938 46.7672C41.8979 45.8391 37.9667 45.375 34 45.375C30.0333 45.375 26.1021 45.8391 22.2063 46.7672C18.3104 47.6953 14.45 49.0875 10.625 50.9437C9.9875 51.2875 9.47396 51.7687 9.08438 52.3875C8.69479 53.0062 8.5 53.6937 8.5 54.45V57.75ZM34 24.75C36.3375 24.75 38.3385 23.9422 40.0031 22.3266C41.6677 20.7109 42.5 18.7687 42.5 16.5C42.5 14.2312 41.6677 12.2891 40.0031 10.6734C38.3385 9.05781 36.3375 8.25 34 8.25C31.6625 8.25 29.6615 9.05781 27.9969 10.6734C26.3323 12.2891 25.5 14.2312 25.5 16.5C25.5 18.7687 26.3323 20.7109 27.9969 22.3266C29.6615 23.9422 31.6625 24.75 34 24.75Z" fill="#C1C1C1"/>
</svg>
