<svg width="208" height="60" viewBox="0 0 208 60" fill="none" xmlns="http://www.w3.org/2000/svg">
<rect width="60" height="60" rx="5" fill="#6A6D7C"/>
<rect x="8.57129" y="43.9399" width="18.1667" height="26.5" rx="3.5" transform="rotate(-90 8.57129 43.9399)" fill="#B5B5B5" stroke="#666666"/>
<rect x="43.24" y="23.6463" width="18.1667" height="26.5" rx="3.5" transform="rotate(98 43.24 23.6463)" fill="#D9D9D9" stroke="#666666"/>
<rect x="51.2633" y="25.424" width="18.1667" height="26.5" rx="3.5" transform="rotate(115 51.2633 25.424)" fill="#EEF0F8" stroke="#666666"/>
<path d="M68.8151 27.2544C68.3138 27.2544 68.0631 26.9858 68.0631 26.4487V12.6558C68.0631 12.1187 68.3138 11.8501 68.8151 11.8501H78.0319C78.569 11.8501 78.8376 12.0828 78.8376 12.5483V13.8159C78.8376 14.2814 78.569 14.5142 78.0319 14.5142H71.1999V17.9302H77.4626C77.9997 17.9302 78.2682 18.1629 78.2682 18.6284V19.896C78.2682 20.3615 77.9997 20.5942 77.4626 20.5942H71.1999V24.5903H78.3756C78.9128 24.5903 79.1813 24.8231 79.1813 25.2886V26.5562C79.1813 27.0216 78.9128 27.2544 78.3756 27.2544H68.8151Z" fill="#393939"/>
<path d="M82.1999 27.2544C81.7702 27.2544 81.5553 27.0396 81.5553 26.6099V16.6196C81.5553 16.1899 81.7702 15.9751 82.1999 15.9751H83.8971C84.3268 15.9751 84.5417 16.1899 84.5417 16.6196V17.2427H84.5846C84.9141 16.6769 85.333 16.2902 85.8415 16.0825C86.3499 15.8677 86.9622 15.7603 87.6784 15.7603C88.7956 15.7603 89.7194 16.1112 90.4499 16.813C91.1803 17.5148 91.5456 18.7967 91.5456 20.6587V26.6099C91.5456 27.0396 91.3307 27.2544 90.901 27.2544H89.1823C88.7526 27.2544 88.5377 27.0396 88.5377 26.6099V21.4321C88.5377 19.8709 88.4303 18.8862 88.2155 18.478C88.0006 18.0698 87.5387 17.8657 86.8297 17.8657C86.0778 17.8657 85.512 18.1593 85.1325 18.7466C84.7529 19.3267 84.5631 20.5369 84.5631 22.3774V26.6099C84.5631 27.0396 84.3483 27.2544 83.9186 27.2544H82.1999Z" fill="#393939"/>
<path d="M93.8444 21.6147C93.8444 20.0392 94.1846 18.6714 94.8649 17.5112C95.5524 16.3439 96.7376 15.7603 98.4206 15.7603C99.0651 15.7603 99.6165 15.8534 100.075 16.0396C100.533 16.2257 100.949 16.6268 101.321 17.2427H101.364L101.407 16.6196C101.436 16.1899 101.629 15.9751 101.987 15.9751H103.684C104.114 15.9751 104.329 16.1899 104.329 16.6196V28.2192C103.949 30.3179 103.552 31.0005 101.321 32.3389C100.386 32.8147 98.8913 32.8147 96.8913 32.8147C96.1322 32.8147 93.4063 32.814 91.0631 32.8147C82.5462 32.8171 76.2049 32.8137 68.8913 32.8142C67.8913 32.7873 68.0038 31.5 68.0038 31.5C68.0038 31.5 68.0631 30.3179 69.0631 30.3179C70.0631 30.3179 89.0631 30.3179 89.0631 30.3179H91.0631C91.0631 30.3179 93.3971 30.3179 94.0631 30.3179C94.9798 30.3179 93.0631 30.3179 98.0631 30.3179C98.5631 30.3179 101.046 30.3179 101.321 28.2192V26.7388C101.321 26.4523 101.335 26.1659 101.364 25.8794H101.321C100.949 26.4953 100.533 26.8963 100.075 27.0825C99.6165 27.2687 99.0651 27.3618 98.4206 27.3618C96.7376 27.3618 95.5524 26.7817 94.8649 25.6216C94.1846 24.4543 93.8444 23.1187 93.8444 21.6147ZM97.0241 21.6147C97.0241 22.689 97.1709 23.5662 97.4645 24.2466C97.7653 24.9198 98.3991 25.2563 99.3659 25.2563C99.903 25.2563 100.361 24.9556 100.741 24.354C101.128 23.7453 101.321 22.9575 101.321 21.9907V21.1313C101.321 20.1646 101.128 19.3804 100.741 18.7788C100.361 18.1701 99.903 17.8657 99.3659 17.8657C98.3991 17.8657 97.7653 18.2059 97.4645 18.8862C97.1709 19.5594 97.0241 20.4689 97.0241 21.6147Z" fill="#393939"/>
<path d="M107.895 27.2544C107.465 27.2544 107.251 27.0396 107.251 26.6099V13.9233C107.251 13.6011 107.326 13.3075 107.476 13.0425L108.303 11.5923C108.461 11.3201 108.647 11.1841 108.862 11.1841H109.614C110.044 11.1841 110.258 11.3989 110.258 11.8286V26.6099C110.258 27.0396 110.044 27.2544 109.614 27.2544H107.895Z" fill="#393939"/>
<path d="M113.825 27.2544C113.395 27.2544 113.18 27.0396 113.18 26.6099V16.6196C113.18 16.1899 113.395 15.9751 113.825 15.9751H115.544C115.973 15.9751 116.188 16.1899 116.188 16.6196V21.6147V26.6099C116.188 27.0396 115.973 27.2544 115.544 27.2544H113.825ZM113.825 14.3208C113.395 14.3208 113.18 14.106 113.18 13.6763V12.3013C113.18 11.8716 113.395 11.6567 113.825 11.6567H115.544C115.973 11.6567 116.188 11.8716 116.188 12.3013V13.6763C116.188 14.106 115.973 14.3208 115.544 14.3208H113.825Z" fill="#393939"/>
<path d="M118.884 26.5024C118.534 26.2518 118.437 25.9832 118.594 25.6968L119.142 24.6978C119.336 24.3397 119.636 24.2967 120.045 24.5688C120.453 24.841 120.933 25.0415 121.484 25.1704C122.043 25.2993 122.551 25.3638 123.009 25.3638C123.332 25.3638 123.632 25.3315 123.912 25.2671C124.191 25.2026 124.427 25.0773 124.621 24.8911C124.814 24.7049 124.911 24.4328 124.911 24.0747C124.911 23.8599 124.853 23.6772 124.739 23.5269C124.624 23.3765 124.478 23.2619 124.298 23.1831C124.119 23.1043 123.93 23.0399 123.729 22.9897C123.464 22.9253 123.081 22.8179 122.58 22.6675C122.086 22.5171 121.609 22.3416 121.151 22.1411C120.771 21.9764 120.399 21.7472 120.034 21.4536C119.676 21.1528 119.411 20.8198 119.239 20.4546C119.074 20.0894 118.992 19.6382 118.992 19.1011C118.992 18.3778 119.2 17.744 119.615 17.1997C120.037 16.6554 120.582 16.2795 121.248 16.0718C121.914 15.8641 122.744 15.7603 123.74 15.7603C124.413 15.7603 125.068 15.8569 125.706 16.0503C126.343 16.2437 126.798 16.4263 127.07 16.5981C127.5 16.8703 127.607 17.1603 127.392 17.4683L126.737 18.4243C126.536 18.7108 126.214 18.7323 125.77 18.4888C125.434 18.3026 125.101 18.1522 124.771 18.0376C124.449 17.923 124.087 17.8657 123.686 17.8657C123.414 17.8657 123.153 17.8944 122.902 17.9517C122.651 18.009 122.437 18.1164 122.257 18.2739C122.086 18.4315 122 18.6392 122 18.897C122 19.1691 122.078 19.384 122.236 19.5415C122.401 19.6919 122.587 19.8029 122.795 19.8745C123.009 19.9461 123.214 20.0142 123.407 20.0786C123.808 20.2075 124.213 20.3328 124.621 20.4546C125.029 20.5692 125.444 20.7088 125.867 20.8735C126.232 21.0168 126.587 21.2209 126.93 21.4858C127.274 21.7508 127.525 22.0874 127.682 22.4956C127.84 22.9038 127.919 23.3693 127.919 23.8921C127.919 24.5868 127.711 25.2313 127.296 25.8257C126.88 26.4201 126.332 26.8426 125.652 27.0933C124.972 27.3439 124.18 27.4692 123.278 27.4692C122.268 27.4692 121.409 27.3976 120.7 27.2544C119.991 27.1112 119.386 26.8605 118.884 26.5024Z" fill="#393939"/>
<path d="M130.561 27.2544C130.131 27.2544 129.917 27.0396 129.917 26.6099V12.0435C129.917 11.6138 130.131 11.3989 130.561 11.3989H132.28C132.71 11.3989 132.924 11.6138 132.924 12.0435V16.3833C132.924 16.6698 132.91 16.9562 132.882 17.2427H132.946C133.275 16.6769 133.694 16.2902 134.203 16.0825C134.711 15.8677 135.324 15.7603 136.04 15.7603C137.157 15.7603 138.081 16.1112 138.811 16.813C139.542 17.5148 139.907 18.7967 139.907 20.6587V26.6099C139.907 27.0396 139.692 27.2544 139.262 27.2544H137.544C137.114 27.2544 136.899 27.0396 136.899 26.6099V21.4321C136.899 19.8709 136.792 18.8862 136.577 18.478C136.362 18.0698 135.9 17.8657 135.191 17.8657C134.439 17.8657 133.873 18.1593 133.494 18.7466C133.114 19.3267 132.924 20.5369 132.924 22.3774V26.6099C132.924 27.0396 132.71 27.2544 132.28 27.2544H130.561Z" fill="#393939"/>
<path d="M149.79 19.5522C149.79 17.0815 150.416 15.1193 151.67 13.6655C152.923 12.2118 154.731 11.4849 157.094 11.4849C158.455 11.4849 159.608 11.6961 160.553 12.1187C161.499 12.5412 162.165 13.1535 162.551 13.9556C162.809 14.4855 162.766 14.8436 162.423 15.0298L161.133 15.7173C160.682 15.9608 160.31 15.8247 160.016 15.3091C159.83 14.9797 159.483 14.6825 158.974 14.4175C158.473 14.1525 157.882 14.02 157.202 14.02C155.698 14.02 154.645 14.4963 154.044 15.4487C153.442 16.394 153.141 17.7619 153.141 19.5522C153.141 21.3426 153.442 22.714 154.044 23.6665C154.645 24.6118 155.698 25.0845 157.202 25.0845C158.011 25.0845 158.691 24.9019 159.243 24.5366C159.801 24.1714 160.188 23.8241 160.403 23.4946C160.754 22.9575 161.126 22.8215 161.52 23.0864L162.809 23.9458C163.16 24.1821 163.196 24.5402 162.917 25.02C162.501 25.7362 161.789 26.3485 160.779 26.8569C159.769 27.3654 158.541 27.6196 157.094 27.6196C154.767 27.6196 152.966 26.8927 151.691 25.439C150.424 23.9852 149.79 22.0229 149.79 19.5522Z" fill="#393939"/>
<path d="M164.958 24.2466C164.958 22.8143 165.642 21.7759 167.009 21.1313C168.377 20.4868 169.938 20.1431 171.693 20.1001V19.6704C171.693 19.0116 171.528 18.5461 171.199 18.2739C170.869 18.0018 170.411 17.8657 169.824 17.8657C169.409 17.8657 169.04 17.9266 168.717 18.0483C168.402 18.1629 168.127 18.299 167.89 18.4565C167.661 18.6069 167.453 18.7609 167.267 18.9185C166.938 19.2049 166.666 19.2192 166.451 18.9614L165.559 17.8657C165.337 17.5936 165.391 17.3143 165.72 17.0278C165.971 16.8058 166.261 16.6125 166.59 16.4478C166.927 16.283 167.371 16.1291 167.923 15.9858C168.474 15.8354 169.19 15.7603 170.071 15.7603C171.561 15.7603 172.703 16.104 173.498 16.7915C174.3 17.479 174.701 18.4924 174.701 19.8315V26.6099C174.701 27.0396 174.486 27.2544 174.056 27.2544H172.295C171.908 27.2544 171.715 27.0396 171.715 26.6099V26.2876H171.693C171.271 26.6958 170.762 26.9966 170.168 27.1899C169.58 27.3761 169.04 27.4692 168.546 27.4692C167.371 27.4692 166.479 27.1828 165.871 26.6099C165.262 26.0298 164.958 25.242 164.958 24.2466ZM168.137 24.1821C168.137 24.4328 168.187 24.6512 168.288 24.8374C168.388 25.0164 168.546 25.1489 168.76 25.2349C168.975 25.3208 169.215 25.3638 169.48 25.3638C169.845 25.3638 170.2 25.3136 170.544 25.2134C170.887 25.1131 171.271 24.8768 171.693 24.5044V22.1733C170.49 22.3094 169.684 22.4849 169.276 22.6997C168.868 22.9146 168.574 23.1366 168.395 23.3657C168.223 23.5949 168.137 23.867 168.137 24.1821Z" fill="#393939"/>
<path d="M178.278 27.2544C177.848 27.2544 177.633 27.0396 177.633 26.6099V16.6196C177.633 16.1899 177.848 15.9751 178.278 15.9751H179.975C180.405 15.9751 180.62 16.1899 180.62 16.6196V17.5005H180.663C180.849 17.0422 181.16 16.6375 181.597 16.2866C182.034 15.9357 182.55 15.7603 183.144 15.7603C183.552 15.7603 183.889 15.8104 184.154 15.9106C184.405 16.0037 184.501 16.1756 184.444 16.4263L184.143 17.7046C184.079 17.991 183.885 18.077 183.563 17.9624C183.377 17.8979 183.198 17.8657 183.026 17.8657C182.339 17.8657 181.769 18.2775 181.318 19.1011C180.867 19.9246 180.641 21.1242 180.641 22.6997V26.6099C180.641 27.0396 180.426 27.2544 179.997 27.2544H178.278Z" fill="#393939"/>
<path d="M185.475 21.6147C185.475 20.0392 185.815 18.6714 186.496 17.5112C187.183 16.3439 188.368 15.7603 190.051 15.7603C190.696 15.7603 191.247 15.8534 191.706 16.0396C192.164 16.2257 192.579 16.6268 192.952 17.2427H192.995C192.966 16.9562 192.952 16.6698 192.952 16.3833V12.0435C192.952 11.6138 193.167 11.3989 193.596 11.3989H195.315C195.745 11.3989 195.96 11.6138 195.96 12.0435V26.6099C195.96 27.0396 195.745 27.2544 195.315 27.2544H193.618C193.26 27.2544 193.066 27.0396 193.038 26.6099L192.995 25.9868H192.952C192.579 26.6027 192.164 27.0037 191.706 27.1899C191.247 27.3761 190.696 27.4692 190.051 27.4692C188.368 27.4692 187.183 26.8892 186.496 25.729C185.815 24.5617 185.475 23.1903 185.475 21.6147ZM188.655 21.6147C188.655 22.7606 188.802 23.6737 189.095 24.354C189.396 25.0272 190.03 25.3638 190.997 25.3638C191.534 25.3638 191.992 25.063 192.372 24.4614C192.758 23.8527 192.952 23.0649 192.952 22.0981V21.1313C192.952 20.1646 192.758 19.3804 192.372 18.7788C191.992 18.1701 191.534 17.8657 190.997 17.8657C190.03 17.8657 189.396 18.2059 189.095 18.8862C188.802 19.5594 188.655 20.4689 188.655 21.6147Z" fill="#393939"/>
<path d="M198.656 26.5024C198.305 26.2518 198.208 25.9832 198.366 25.6968L198.914 24.6978C199.107 24.3397 199.408 24.2967 199.816 24.5688C200.224 24.841 200.704 25.0415 201.256 25.1704C201.814 25.2993 202.323 25.3638 202.781 25.3638C203.103 25.3638 203.404 25.3315 203.683 25.2671C203.963 25.2026 204.199 25.0773 204.392 24.8911C204.586 24.7049 204.682 24.4328 204.682 24.0747C204.682 23.8599 204.625 23.6772 204.51 23.5269C204.396 23.3765 204.249 23.2619 204.07 23.1831C203.891 23.1043 203.701 23.0399 203.501 22.9897C203.236 22.9253 202.853 22.8179 202.351 22.6675C201.857 22.5171 201.381 22.3416 200.923 22.1411C200.543 21.9764 200.171 21.7472 199.805 21.4536C199.447 21.1528 199.182 20.8198 199.01 20.4546C198.846 20.0894 198.763 19.6382 198.763 19.1011C198.763 18.3778 198.971 17.744 199.386 17.1997C199.809 16.6554 200.353 16.2795 201.019 16.0718C201.685 15.8641 202.516 15.7603 203.511 15.7603C204.185 15.7603 204.84 15.8569 205.477 16.0503C206.115 16.2437 206.569 16.4263 206.841 16.5981C207.271 16.8703 207.379 17.1603 207.164 17.4683L206.508 18.4243C206.308 18.7108 205.986 18.7323 205.542 18.4888C205.205 18.3026 204.872 18.1522 204.543 18.0376C204.22 17.923 203.859 17.8657 203.458 17.8657C203.186 17.8657 202.924 17.8944 202.673 17.9517C202.423 18.009 202.208 18.1164 202.029 18.2739C201.857 18.4315 201.771 18.6392 201.771 18.897C201.771 19.1691 201.85 19.384 202.007 19.5415C202.172 19.6919 202.358 19.8029 202.566 19.8745C202.781 19.9461 202.985 20.0142 203.178 20.0786C203.579 20.2075 203.984 20.3328 204.392 20.4546C204.8 20.5692 205.216 20.7088 205.638 20.8735C206.004 21.0168 206.358 21.2209 206.702 21.4858C207.046 21.7508 207.296 22.0874 207.454 22.4956C207.611 22.9038 207.69 23.3693 207.69 23.8921C207.69 24.5868 207.482 25.2313 207.067 25.8257C206.652 26.4201 206.104 26.8426 205.423 27.0933C204.743 27.3439 203.952 27.4692 203.049 27.4692C202.04 27.4692 201.18 27.3976 200.471 27.2544C199.762 27.1112 199.157 26.8605 198.656 26.5024Z" fill="#393939"/>
<path d="M68.5273 48.7046C68.3203 48.5835 68.2422 48.437 68.293 48.2651L68.5391 47.4624C68.6094 47.2319 68.793 47.2085 69.0898 47.3921C69.3438 47.5522 69.627 47.6323 69.9395 47.6323C70.3691 47.6323 70.6484 47.4839 70.7773 47.187C70.9102 46.8901 70.9766 46.396 70.9766 45.7046V40.853C70.9766 40.5601 71.1133 40.4136 71.3867 40.4136H72.2773C72.5508 40.4136 72.6875 40.5601 72.6875 40.853V45.5874C72.6875 47.0249 72.4453 47.9565 71.9609 48.3823C71.4805 48.8042 70.8125 49.0151 69.957 49.0151C69.3594 49.0151 68.8828 48.9116 68.5273 48.7046ZM74.3398 46.2612V43.0151C74.3398 42.7808 74.457 42.6636 74.6914 42.6636H75.6289C75.8633 42.6636 75.9805 42.7808 75.9805 43.0151V45.8394C75.9805 46.6909 76.0391 47.228 76.1562 47.4507C76.2734 47.6733 76.5195 47.7847 76.8945 47.7847C77.293 47.7847 77.5957 47.6265 77.8027 47.3101C78.0098 46.9897 78.1133 46.3276 78.1133 45.3237V43.0151C78.1133 42.7808 78.2305 42.6636 78.4648 42.6636H79.4023C79.6367 42.6636 79.7539 42.7808 79.7539 43.0151V48.4644C79.7539 48.6987 79.6367 48.8159 79.4023 48.8159H78.4766C78.2422 48.8159 78.125 48.6987 78.125 48.4644V48.1245H78.1016C77.9219 48.4331 77.6934 48.646 77.416 48.7632C77.1387 48.8765 76.8105 48.9331 76.4316 48.9331C75.834 48.9331 75.3359 48.7417 74.9375 48.3589C74.5391 47.9761 74.3398 47.2769 74.3398 46.2612ZM81.2246 48.4058C81.0332 48.269 80.9805 48.1226 81.0664 47.9663L81.3652 47.4214C81.4707 47.2261 81.6348 47.2026 81.8574 47.3511C82.0801 47.4995 82.3418 47.6089 82.6426 47.6792C82.9473 47.7495 83.2246 47.7847 83.4746 47.7847C83.6504 47.7847 83.8145 47.7671 83.9668 47.7319C84.1191 47.6968 84.248 47.6284 84.3535 47.5269C84.459 47.4253 84.5117 47.2769 84.5117 47.0815C84.5117 46.9644 84.4805 46.8647 84.418 46.7827C84.3555 46.7007 84.2754 46.6382 84.1777 46.5952C84.0801 46.5522 83.9766 46.5171 83.8672 46.4897C83.7227 46.4546 83.5137 46.396 83.2402 46.314C82.9707 46.2319 82.7109 46.1362 82.4609 46.0269C82.2539 45.937 82.0508 45.812 81.8516 45.6519C81.6562 45.4878 81.5117 45.3062 81.418 45.1069C81.3281 44.9077 81.2832 44.6616 81.2832 44.3687C81.2832 43.9741 81.3965 43.6284 81.623 43.3315C81.8535 43.0347 82.1504 42.8296 82.5137 42.7163C82.877 42.603 83.3301 42.5464 83.873 42.5464C84.2402 42.5464 84.5977 42.5991 84.9453 42.7046C85.293 42.8101 85.541 42.9097 85.6895 43.0034C85.9238 43.1519 85.9824 43.3101 85.8652 43.478L85.5078 43.9995C85.3984 44.1558 85.2227 44.1675 84.9805 44.0347C84.7969 43.9331 84.6152 43.8511 84.4355 43.7886C84.2598 43.7261 84.0625 43.6948 83.8438 43.6948C83.6953 43.6948 83.5527 43.7104 83.416 43.7417C83.2793 43.7729 83.1621 43.8315 83.0645 43.9175C82.9707 44.0034 82.9238 44.1167 82.9238 44.2573C82.9238 44.4058 82.9668 44.5229 83.0527 44.6089C83.1426 44.6909 83.2441 44.7515 83.3574 44.7905C83.4746 44.8296 83.5859 44.8667 83.6914 44.9019C83.9102 44.9722 84.1309 45.0405 84.3535 45.1069C84.5762 45.1694 84.8027 45.2456 85.0332 45.3354C85.2324 45.4136 85.4258 45.5249 85.6133 45.6694C85.8008 45.814 85.9375 45.9976 86.0234 46.2202C86.1094 46.4429 86.1523 46.6968 86.1523 46.9819C86.1523 47.3608 86.0391 47.7124 85.8125 48.0366C85.5859 48.3608 85.2871 48.5913 84.916 48.728C84.5449 48.8647 84.1133 48.9331 83.6211 48.9331C83.0703 48.9331 82.6016 48.894 82.2148 48.8159C81.8281 48.7378 81.498 48.6011 81.2246 48.4058ZM87.0371 43.8354C86.8066 43.8354 86.6914 43.7378 86.6914 43.5425V42.9565C86.6914 42.7612 86.8066 42.6636 87.0371 42.6636H87.4355V42.4585C87.4355 42.2827 87.4766 42.1226 87.5586 41.978L88.0098 41.187C88.0957 41.0386 88.1973 40.9644 88.3145 40.9644H88.7246C88.959 40.9644 89.0762 41.0815 89.0762 41.3159V42.6636H90.0254C90.2559 42.6636 90.3711 42.7612 90.3711 42.9565V43.5425C90.3711 43.7378 90.2559 43.8354 90.0254 43.8354H89.0762V46.7417C89.0762 47.1401 89.1035 47.4272 89.1582 47.603C89.2168 47.7749 89.3652 47.8608 89.6035 47.8608C89.7246 47.8608 89.8613 47.8413 90.0137 47.8022C90.166 47.7593 90.2852 47.7183 90.3711 47.6792C90.5078 47.6167 90.5977 47.6616 90.6406 47.814L90.8164 48.4819C90.8516 48.6147 90.8008 48.7124 90.6641 48.7749C90.5352 48.8335 90.3574 48.8862 90.1309 48.9331C89.9082 48.9839 89.6836 49.0093 89.457 49.0093C88.8984 49.0093 88.4219 48.894 88.0273 48.6636C87.6328 48.4331 87.4355 47.9585 87.4355 47.2397V43.8354H87.0371ZM95.8965 48.4058C95.7051 48.269 95.6523 48.1226 95.7383 47.9663L96.0371 47.4214C96.1426 47.2261 96.3066 47.2026 96.5293 47.3511C96.752 47.4995 97.0137 47.6089 97.3145 47.6792C97.6191 47.7495 97.8965 47.7847 98.1465 47.7847C98.3223 47.7847 98.4863 47.7671 98.6387 47.7319C98.791 47.6968 98.9199 47.6284 99.0254 47.5269C99.1309 47.4253 99.1836 47.2769 99.1836 47.0815C99.1836 46.9644 99.1523 46.8647 99.0898 46.7827C99.0273 46.7007 98.9473 46.6382 98.8496 46.5952C98.752 46.5522 98.6484 46.5171 98.5391 46.4897C98.3945 46.4546 98.1855 46.396 97.9121 46.314C97.6426 46.2319 97.3828 46.1362 97.1328 46.0269C96.9258 45.937 96.7227 45.812 96.5234 45.6519C96.3281 45.4878 96.1836 45.3062 96.0898 45.1069C96 44.9077 95.9551 44.6616 95.9551 44.3687C95.9551 43.9741 96.0684 43.6284 96.2949 43.3315C96.5254 43.0347 96.8223 42.8296 97.1855 42.7163C97.5488 42.603 98.002 42.5464 98.5449 42.5464C98.9121 42.5464 99.2695 42.5991 99.6172 42.7046C99.9648 42.8101 100.213 42.9097 100.361 43.0034C100.596 43.1519 100.654 43.3101 100.537 43.478L100.18 43.9995C100.07 44.1558 99.8945 44.1675 99.6523 44.0347C99.4688 43.9331 99.2871 43.8511 99.1074 43.7886C98.9316 43.7261 98.7344 43.6948 98.5156 43.6948C98.3672 43.6948 98.2246 43.7104 98.0879 43.7417C97.9512 43.7729 97.834 43.8315 97.7363 43.9175C97.6426 44.0034 97.5957 44.1167 97.5957 44.2573C97.5957 44.4058 97.6387 44.5229 97.7246 44.6089C97.8145 44.6909 97.916 44.7515 98.0293 44.7905C98.1465 44.8296 98.2578 44.8667 98.3633 44.9019C98.582 44.9722 98.8027 45.0405 99.0254 45.1069C99.248 45.1694 99.4746 45.2456 99.7051 45.3354C99.9043 45.4136 100.098 45.5249 100.285 45.6694C100.473 45.814 100.609 45.9976 100.695 46.2202C100.781 46.4429 100.824 46.6968 100.824 46.9819C100.824 47.3608 100.711 47.7124 100.484 48.0366C100.258 48.3608 99.959 48.5913 99.5879 48.728C99.2168 48.8647 98.7852 48.9331 98.293 48.9331C97.7422 48.9331 97.2734 48.894 96.8867 48.8159C96.5 48.7378 96.1699 48.6011 95.8965 48.4058ZM101.586 45.7397C101.586 44.7437 101.836 43.9624 102.336 43.396C102.836 42.8296 103.604 42.5464 104.639 42.5464C105.244 42.5464 105.715 42.6265 106.051 42.7866C106.387 42.9468 106.656 43.1812 106.859 43.4897C106.98 43.6733 106.961 43.8179 106.801 43.9233L106.18 44.3335C106.004 44.4507 105.85 44.4058 105.717 44.1987C105.65 44.0972 105.523 43.9878 105.336 43.8706C105.148 43.7534 104.916 43.6948 104.639 43.6948C104.197 43.6948 103.867 43.8511 103.648 44.1636C103.43 44.4722 103.32 44.9976 103.32 45.7397C103.32 46.4819 103.43 47.0093 103.648 47.3218C103.867 47.6304 104.197 47.7847 104.639 47.7847C104.955 47.7847 105.211 47.7183 105.406 47.5854C105.602 47.4526 105.785 47.2808 105.957 47.0698C106.105 46.8901 106.262 46.8647 106.426 46.9937L106.971 47.4214C107.135 47.5503 107.145 47.7222 107 47.937C106.848 48.1636 106.588 48.3862 106.221 48.605C105.857 48.8237 105.33 48.9331 104.639 48.9331C103.604 48.9331 102.836 48.6499 102.336 48.0835C101.836 47.5171 101.586 46.7358 101.586 45.7397ZM108.629 48.8159C108.395 48.8159 108.277 48.6987 108.277 48.4644V43.0151C108.277 42.7808 108.395 42.6636 108.629 42.6636H109.555C109.789 42.6636 109.906 42.7808 109.906 43.0151V43.4956H109.93C110.031 43.2456 110.201 43.0249 110.439 42.8335C110.678 42.6421 110.959 42.5464 111.283 42.5464C111.506 42.5464 111.689 42.5737 111.834 42.6284C111.971 42.6792 112.023 42.7729 111.992 42.9097L111.828 43.6069C111.793 43.7632 111.688 43.8101 111.512 43.7476C111.41 43.7124 111.312 43.6948 111.219 43.6948C110.844 43.6948 110.533 43.9194 110.287 44.3687C110.041 44.8179 109.918 45.4722 109.918 46.3315V48.4644C109.918 48.6987 109.801 48.8159 109.566 48.8159H108.629ZM112.555 45.7397C112.555 44.7437 112.811 43.9624 113.322 43.396C113.838 42.8296 114.604 42.5464 115.619 42.5464C116.635 42.5464 117.398 42.8296 117.91 43.396C118.426 43.9624 118.684 44.7437 118.684 45.7397C118.684 46.7358 118.426 47.5171 117.91 48.0835C117.398 48.6499 116.635 48.9331 115.619 48.9331C114.604 48.9331 113.838 48.6499 113.322 48.0835C112.811 47.5171 112.555 46.7358 112.555 45.7397ZM114.289 45.7397C114.289 46.4819 114.402 47.0093 114.629 47.3218C114.859 47.6304 115.189 47.7847 115.619 47.7847C116.049 47.7847 116.377 47.6304 116.604 47.3218C116.834 47.0093 116.949 46.4819 116.949 45.7397C116.949 44.9976 116.834 44.4722 116.604 44.1636C116.377 43.8511 116.049 43.6948 115.619 43.6948C115.189 43.6948 114.859 43.8511 114.629 44.1636C114.402 44.4722 114.289 44.9976 114.289 45.7397ZM120.301 48.8159C120.066 48.8159 119.949 48.6987 119.949 48.4644V41.5444C119.949 41.3687 119.99 41.2085 120.072 41.064L120.523 40.2729C120.609 40.1245 120.711 40.0503 120.828 40.0503H121.238C121.473 40.0503 121.59 40.1675 121.59 40.4019V48.4644C121.59 48.6987 121.473 48.8159 121.238 48.8159H120.301ZM123.535 48.8159C123.301 48.8159 123.184 48.6987 123.184 48.4644V41.5444C123.184 41.3687 123.225 41.2085 123.307 41.064L123.758 40.2729C123.844 40.1245 123.945 40.0503 124.062 40.0503H124.473C124.707 40.0503 124.824 40.1675 124.824 40.4019V48.4644C124.824 48.6987 124.707 48.8159 124.473 48.8159H123.535ZM130.314 43.8354C130.084 43.8354 129.969 43.7378 129.969 43.5425V42.9565C129.969 42.7612 130.084 42.6636 130.314 42.6636H130.713V42.4585C130.713 42.2827 130.754 42.1226 130.836 41.978L131.287 41.187C131.373 41.0386 131.475 40.9644 131.592 40.9644H132.002C132.236 40.9644 132.354 41.0815 132.354 41.3159V42.6636H133.303C133.533 42.6636 133.648 42.7612 133.648 42.9565V43.5425C133.648 43.7378 133.533 43.8354 133.303 43.8354H132.354V46.7417C132.354 47.1401 132.381 47.4272 132.436 47.603C132.494 47.7749 132.643 47.8608 132.881 47.8608C133.002 47.8608 133.139 47.8413 133.291 47.8022C133.443 47.7593 133.562 47.7183 133.648 47.6792C133.785 47.6167 133.875 47.6616 133.918 47.814L134.094 48.4819C134.129 48.6147 134.078 48.7124 133.941 48.7749C133.812 48.8335 133.635 48.8862 133.408 48.9331C133.186 48.9839 132.961 49.0093 132.734 49.0093C132.176 49.0093 131.699 48.894 131.305 48.6636C130.91 48.4331 130.713 47.9585 130.713 47.2397V43.8354H130.314ZM135.547 48.8159C135.312 48.8159 135.195 48.6987 135.195 48.4644V40.519C135.195 40.2847 135.312 40.1675 135.547 40.1675H136.484C136.719 40.1675 136.836 40.2847 136.836 40.519V42.8862C136.836 43.0425 136.828 43.1987 136.812 43.355H136.848C137.027 43.0464 137.256 42.8354 137.533 42.7222C137.811 42.605 138.145 42.5464 138.535 42.5464C139.145 42.5464 139.648 42.7378 140.047 43.1206C140.445 43.5034 140.645 44.2026 140.645 45.2183V48.4644C140.645 48.6987 140.527 48.8159 140.293 48.8159H139.355C139.121 48.8159 139.004 48.6987 139.004 48.4644V45.6401C139.004 44.7886 138.945 44.2515 138.828 44.0288C138.711 43.8062 138.459 43.6948 138.072 43.6948C137.662 43.6948 137.354 43.855 137.146 44.1753C136.939 44.4917 136.836 45.1519 136.836 46.1558V48.4644C136.836 48.6987 136.719 48.8159 136.484 48.8159H135.547ZM142.578 48.8159C142.344 48.8159 142.227 48.6987 142.227 48.4644V43.0151C142.227 42.7808 142.344 42.6636 142.578 42.6636H143.504C143.738 42.6636 143.855 42.7808 143.855 43.0151V43.4956H143.879C143.98 43.2456 144.15 43.0249 144.389 42.8335C144.627 42.6421 144.908 42.5464 145.232 42.5464C145.455 42.5464 145.639 42.5737 145.783 42.6284C145.92 42.6792 145.973 42.7729 145.941 42.9097L145.777 43.6069C145.742 43.7632 145.637 43.8101 145.461 43.7476C145.359 43.7124 145.262 43.6948 145.168 43.6948C144.793 43.6948 144.482 43.9194 144.236 44.3687C143.99 44.8179 143.867 45.4722 143.867 46.3315V48.4644C143.867 48.6987 143.75 48.8159 143.516 48.8159H142.578ZM146.504 45.7397C146.504 44.7437 146.76 43.9624 147.271 43.396C147.787 42.8296 148.553 42.5464 149.568 42.5464C150.584 42.5464 151.348 42.8296 151.859 43.396C152.375 43.9624 152.633 44.7437 152.633 45.7397C152.633 46.7358 152.375 47.5171 151.859 48.0835C151.348 48.6499 150.584 48.9331 149.568 48.9331C148.553 48.9331 147.787 48.6499 147.271 48.0835C146.76 47.5171 146.504 46.7358 146.504 45.7397ZM148.238 45.7397C148.238 46.4819 148.352 47.0093 148.578 47.3218C148.809 47.6304 149.139 47.7847 149.568 47.7847C149.998 47.7847 150.326 47.6304 150.553 47.3218C150.783 47.0093 150.898 46.4819 150.898 45.7397C150.898 44.9976 150.783 44.4722 150.553 44.1636C150.326 43.8511 149.998 43.6948 149.568 43.6948C149.139 43.6948 148.809 43.8511 148.578 44.1636C148.352 44.4722 148.238 44.9976 148.238 45.7397ZM153.887 46.2612V43.0151C153.887 42.7808 154.004 42.6636 154.238 42.6636H155.176C155.41 42.6636 155.527 42.7808 155.527 43.0151V45.8394C155.527 46.6909 155.586 47.228 155.703 47.4507C155.82 47.6733 156.066 47.7847 156.441 47.7847C156.84 47.7847 157.143 47.6265 157.35 47.3101C157.557 46.9897 157.66 46.3276 157.66 45.3237V43.0151C157.66 42.7808 157.777 42.6636 158.012 42.6636H158.949C159.184 42.6636 159.301 42.7808 159.301 43.0151V48.4644C159.301 48.6987 159.184 48.8159 158.949 48.8159H158.023C157.789 48.8159 157.672 48.6987 157.672 48.4644V48.1245H157.648C157.469 48.4331 157.24 48.646 156.963 48.7632C156.686 48.8765 156.357 48.9331 155.979 48.9331C155.381 48.9331 154.883 48.7417 154.484 48.3589C154.086 47.9761 153.887 47.2769 153.887 46.2612ZM160.566 45.7397C160.566 44.8804 160.752 44.1343 161.123 43.5015C161.498 42.8647 162.145 42.5464 163.062 42.5464C163.414 42.5464 163.715 42.5972 163.965 42.6987C164.215 42.8003 164.441 43.019 164.645 43.355H164.668L164.691 43.0151C164.707 42.7808 164.812 42.6636 165.008 42.6636H165.934C166.168 42.6636 166.285 42.7808 166.285 43.0151V48.7515C166.285 49.7085 166.027 50.3687 165.512 50.7319C164.996 51.0952 164.25 51.2769 163.273 51.2769C162.859 51.2769 162.477 51.2554 162.125 51.2124C161.773 51.1694 161.418 51.062 161.059 50.8901C160.871 50.8003 160.84 50.6304 160.965 50.3804L161.176 49.9585C161.262 49.7866 161.404 49.7476 161.604 49.8413C161.764 49.9155 161.961 49.9819 162.195 50.0405C162.434 50.0991 162.734 50.1284 163.098 50.1284C163.598 50.1284 163.98 50.0347 164.246 49.8472C164.512 49.6636 164.645 49.2593 164.645 48.6343V48.5347C164.645 48.3784 164.652 48.2222 164.668 48.0659H164.645C164.441 48.4019 164.215 48.6206 163.965 48.7222C163.715 48.8237 163.414 48.8745 163.062 48.8745C162.145 48.8745 161.498 48.5581 161.123 47.9253C160.752 47.2886 160.566 46.5601 160.566 45.7397ZM162.301 45.7397C162.301 46.3257 162.381 46.8042 162.541 47.1753C162.705 47.5425 163.051 47.7261 163.578 47.7261C163.871 47.7261 164.121 47.562 164.328 47.2339C164.539 46.9019 164.645 46.4722 164.645 45.9448V45.4761C164.645 44.9487 164.539 44.521 164.328 44.1929C164.121 43.8608 163.871 43.6948 163.578 43.6948C163.051 43.6948 162.705 43.8804 162.541 44.2515C162.381 44.6187 162.301 45.1147 162.301 45.7397ZM168.23 48.8159C167.996 48.8159 167.879 48.6987 167.879 48.4644V40.519C167.879 40.2847 167.996 40.1675 168.23 40.1675H169.168C169.402 40.1675 169.52 40.2847 169.52 40.519V42.8862C169.52 43.0425 169.512 43.1987 169.496 43.355H169.531C169.711 43.0464 169.939 42.8354 170.217 42.7222C170.494 42.605 170.828 42.5464 171.219 42.5464C171.828 42.5464 172.332 42.7378 172.73 43.1206C173.129 43.5034 173.328 44.2026 173.328 45.2183V48.4644C173.328 48.6987 173.211 48.8159 172.977 48.8159H172.039C171.805 48.8159 171.688 48.6987 171.688 48.4644V45.6401C171.688 44.7886 171.629 44.2515 171.512 44.0288C171.395 43.8062 171.143 43.6948 170.756 43.6948C170.346 43.6948 170.037 43.855 169.83 44.1753C169.623 44.4917 169.52 45.1519 169.52 46.1558V48.4644C169.52 48.6987 169.402 48.8159 169.168 48.8159H168.23Z" fill="#666666"/>
</svg>
