<svg width="29" height="28" viewBox="0 0 29 28" fill="none" xmlns="http://www.w3.org/2000/svg">
<path fill-rule="evenodd" clip-rule="evenodd" d="M14.5 0C6.765 0 0.5 6.265 0.5 14C0.5 20.195 4.5075 25.4275 10.0725 27.2825C10.7725 27.405 11.035 26.985 11.035 26.6175C11.035 26.285 11.0175 25.1825 11.0175 24.01C7.5 24.6575 6.59 23.1525 6.31 22.365C6.1525 21.9625 5.47 20.72 4.875 20.3875C4.385 20.125 3.685 19.4775 4.8575 19.46C5.96 19.4425 6.7475 20.475 7.01 20.895C8.27 23.0125 10.2825 22.4175 11.0875 22.05C11.21 21.14 11.5775 20.5275 11.98 20.1775C8.865 19.8275 5.61 18.62 5.61 13.265C5.61 11.7425 6.1525 10.4825 7.045 9.5025C6.905 9.1525 6.415 7.7175 7.185 5.7925C7.185 5.7925 8.3575 5.425 11.035 7.2275C12.155 6.9125 13.345 6.755 14.535 6.755C15.725 6.755 16.915 6.9125 18.035 7.2275C20.7125 5.4075 21.885 5.7925 21.885 5.7925C22.655 7.7175 22.165 9.1525 22.025 9.5025C22.9175 10.4825 23.46 11.725 23.46 13.265C23.46 18.6375 20.1875 19.8275 17.0725 20.1775C17.58 20.615 18.0175 21.455 18.0175 22.7675C18.0175 24.64 18 26.145 18 26.6175C18 26.985 18.2625 27.4225 18.9625 27.2825C24.4925 25.4275 28.5 20.1775 28.5 14C28.5 6.265 22.235 0 14.5 0Z" fill="#1B1F23"/>
</svg>
