<svg width="284" height="534" viewBox="0 0 284 534" fill="none" xmlns="http://www.w3.org/2000/svg">
<path d="M107.344 495.766C91.0917 495.766 65.3525 498.44 49.095 501.116C24.7125 506.467 20.6499 521.179 47.7433 529.203C70.7717 535.891 105.99 531.877 130.373 533.217C160.174 534.554 189.981 533.217 219.78 531.88C231.97 531.88 262.047 531.612 272.883 526.262C298.617 512.887 273.965 503.793 256.353 501.119C208.942 493.092 154.755 494.429 107.344 495.766Z" fill="#DDE3F3"/>
<path d="M78.9926 482.27C78.9926 482.27 63.8955 498.655 73.6887 503.189C78.6958 505.519 103.483 517.636 116.978 523.44C133.044 530.719 122.317 512.952 104.087 494.004C104.087 494.004 90.3314 487.567 82.8344 484.058" fill="#9F2D7C"/>
<path d="M183.403 500.497C183.403 500.497 178.151 522.493 188.827 521.384C194.291 520.832 221.602 518.594 236.103 516.691C253.538 514.743 235.711 504.839 210.803 497.776C210.803 497.776 195.782 499.27 187.598 500.082" fill="#9F2D7C"/>
<path d="M208.098 497.858C208.26 485.052 206.268 455.019 205.383 445.84C203.145 424.977 202.029 405.273 199.792 384.404C196.436 348.476 193.74 277.674 191.743 275.449L188.608 273.133C167.525 274.131 111.419 264.878 104.707 276.469C97.3723 301.669 113.927 389.614 113.927 389.614C113.927 389.614 101.349 422.657 90.1622 455.11C86.5094 465.387 81.6398 474.4 80.0967 482.623C88.0868 487.238 94.7596 490.9 103.39 493.876C114.604 477.68 142.32 411.463 150.004 392.879C150.004 392.879 149.628 362.661 150.357 311.965C151.485 313.797 167.343 397.101 167.343 397.101C165.111 436.846 178.387 486.386 184.229 499.997C193.911 499.909 198.506 499.104 208.098 497.858Z" fill="#242F67"/>
<path d="M76.8075 482.358C85.3055 490.767 94.1591 496.275 106.401 496.527C110.358 496.608 110.35 490.475 106.401 490.394C95.7734 490.174 88.475 485.277 81.1423 478.02C78.3334 475.238 73.9936 479.573 76.8075 482.358Z" fill="#454D9E"/>
<path d="M180.379 503.591C191.21 505.224 202.836 504.606 211.93 497.872C215.07 495.547 212.019 490.218 208.834 492.576C201.087 498.311 191.299 499.079 182.011 497.676C178.142 497.092 176.479 503.002 180.379 503.591Z" fill="#454D9E"/>
<path d="M110.857 280.205C109.108 313.756 112.114 346.921 120.486 379.453C123.259 390.225 117.65 398.986 113.703 408.526C110.428 416.443 107.624 424.46 105.056 432.631C99.5996 449.968 95.0685 467.553 88.8349 484.642C88.1554 486.504 91.1189 487.299 91.791 485.457C98.0247 468.377 102.708 450.822 108.012 433.446C110.882 424.045 114.258 414.909 118.158 405.884C120.347 400.82 123.813 395.303 124.188 389.651C124.64 382.875 123.111 377.071 121.227 370.567C118.328 360.553 117.138 349.563 115.776 339.269C113.188 319.692 112.894 299.9 113.922 280.205C114.027 278.228 110.961 278.24 110.857 280.205Z" fill="#454D9E"/>
<path d="M158.14 314.345C160.309 330.117 163.39 345.7 166.734 361.26C170.465 378.624 176.137 396.26 174.999 414.142C174.14 427.622 174.064 438.937 177.53 452.039C181.804 468.191 187.988 483.683 189.978 500.382C190.209 502.321 193.278 502.343 193.045 500.382C191.364 486.281 187.005 472.889 182.859 459.36C177.629 442.293 177.209 427.588 178.33 409.981C179.282 395.046 173.873 379.549 170.708 365.112C166.962 348.013 163.483 330.877 161.099 313.53C160.826 311.578 157.873 312.414 158.14 314.345Z" fill="#454D9E"/>
<path d="M175.256 279.592C175.438 288.407 179.873 301.767 190.896 300.751C192.848 300.572 192.865 297.503 190.896 297.685C181.689 298.534 178.47 286.775 178.323 279.592C178.284 277.618 175.217 277.615 175.256 279.592Z" fill="#454D9E"/>
<path d="M126.247 280.612C126.878 284.866 127.165 289.218 125.83 293.366C124.125 298.67 118.569 300.027 113.621 300.137C111.646 300.181 111.641 303.248 113.621 303.204C119.194 303.081 124.393 301.663 127.579 296.798C130.751 291.956 130.003 285.18 129.204 279.798C128.914 277.847 125.96 278.679 126.247 280.612Z" fill="#454D9E"/>
<path d="M30.5761 259.627C25.5617 264.909 10.5578 273.733 4.99389 277.903C-4.37005 284.922 0.0776329 288.379 12.9791 280.077C10.9626 281.672 0.251813 290.184 2.88903 292.696C5.52624 295.201 15.9304 286.664 18.229 285.835C16.9337 287.518 6.7136 297.546 8.30329 299.56C10.5774 302.033 18.7074 296.484 24.2615 289.323C23.1183 292.856 15.5697 306.287 22.0094 304.474C26.1946 303.132 29.6635 295.461 31.8469 292.427C35.6297 297.64 39.6677 300.674 40.2859 292.311C40.7717 285.028 40.7766 278.794 42.3859 271.28" fill="#EFC3A3"/>
<path d="M260.313 133.676C262.081 126.611 270.805 111.538 273.594 105.175C278.3 94.4492 272.726 93.6298 265.572 107.208C266.549 104.826 271.683 92.1456 268.16 91.2527C264.63 90.3719 259.765 102.928 258.178 104.782C258.48 102.677 262.444 88.9172 260.067 87.9457C256.871 86.9104 252.526 95.7445 251.209 104.713C250.47 101.075 250.436 85.6667 245.723 90.4136C242.743 93.6445 243.491 102.027 243.079 105.749C237.225 103.07 232.218 102.412 235.79 110C238.947 116.58 242.009 122.009 244.3 129.344" fill="#EFC3A3"/>
<path d="M225.704 182.337C232.337 185.733 232.337 157.015 232.445 123.168C246.519 128.109 255.994 128.843 270.318 126.404C271.351 132.792 270.789 140.306 270.34 147.806C268.849 172.824 267.561 181.729 260.402 206.006C248.386 238.627 219.166 224.746 190.888 202.39L163.218 119.81C197.386 113.12 208.534 165.17 225.704 182.337Z" fill="#6C3487"/>
<path d="M137.517 119.812C89.7457 122.14 90.7614 157.908 77.9089 177.605C60.231 204.698 45.1462 230.555 19.6621 258.613C38.8978 274.598 46.753 277.576 46.753 277.576C74.0255 255.59 98.5798 202.39 120.806 179.229" fill="#6C3487"/>
<path d="M103.077 276.18C104.149 231.186 90.5733 110.168 156.221 114.653C210.936 119.14 193.739 238.788 193.739 277.676" fill="#AC61D3"/>
<path d="M112.734 49.721C112.734 89.0829 115.688 112.855 157.098 108.407C191.112 103.957 189.633 77.8987 189.633 48.2393" fill="#EFC3A3"/>
<path d="M140.548 97.0853C140.548 106.049 140.548 115.013 140.548 123.977C140.548 139.008 163.853 139.008 163.853 123.977C163.853 115.013 163.853 106.049 163.853 97.0853C163.853 82.0569 140.548 82.0569 140.548 97.0853Z" fill="#EFC3A3"/>
<path d="M118.29 67.2959C98.9023 61.5652 97.6757 85.7908 117.601 81.451L118.29 67.2959Z" fill="#EFC3A3"/>
<path d="M141.09 16.6756C162.241 -8.64654 210.219 -4.67478 193.407 25.4949C202.381 22.3229 209.402 28.7504 209.179 39.7383C210.526 50.5227 196.302 57.2691 191.202 48.6656C198.755 72.295 156.555 66.4098 153.788 48.3614C153.503 50.3142 152.961 57.1807 143.624 60.1982C137.471 61.2997 132.199 56.538 130.266 49.274C127.173 56.798 119.887 73.0653 118.746 80.8739C110.697 67.732 104.792 49.3231 105.852 27.0429C106.875 5.44476 131.37 1.29636 141.09 16.6756Z" fill="#454D9E"/>
<path d="M144.047 82.0709C144.346 88.9767 145.247 95.019 153.222 95.5022C163.079 95.8972 165.571 90.7504 165.184 81.958" fill="white"/>
<path d="M136.659 89.8699C141.924 89.8699 141.924 81.7056 136.659 81.7056C131.395 81.7056 131.395 89.8699 136.659 89.8699Z" fill="#DC76B6"/>
<path d="M172.108 89.8699C177.372 89.8699 177.372 81.7056 172.108 81.7056C166.843 81.7056 166.843 89.8699 172.108 89.8699Z" fill="#DC76B6"/>
<path d="M149.604 73.6338C153.654 73.6338 153.654 67.3535 149.604 67.3535C145.554 67.356 145.554 73.6338 149.604 73.6338Z" fill="#1E254F"/>
<path d="M163.852 73.831C167.902 73.831 167.902 67.5508 163.852 67.5508C159.802 67.5508 159.802 73.831 163.852 73.831Z" fill="#1E254F"/>
<path d="M16.5469 261.319C24.7456 268.983 34.5854 274.517 43.9003 280.67C47.2122 282.858 50.2787 277.544 46.9963 275.376C38.123 269.515 28.6904 264.285 20.8817 256.984C17.9992 254.283 13.6521 258.613 16.5469 261.319Z" fill="#804A9D"/>
<path d="M234.158 126.972C245.922 128.52 257.79 128.542 269.635 128.544C273.589 128.544 273.589 122.411 269.635 122.411C257.79 122.409 245.922 122.387 234.158 120.839C230.246 120.324 230.295 126.464 234.158 126.972Z" fill="#804A9D"/>
<path d="M133.511 124.031C139.819 142.408 165.416 141.804 170.876 123.15C171.99 119.345 166.071 117.733 164.962 121.519C161.262 134.16 143.803 135.151 139.426 122.399C138.151 118.68 132.226 120.277 133.511 124.031Z" fill="#804A9D"/>
<path d="M102.06 279.514C132.398 282.468 162.845 281.16 193.27 281.086C197.225 281.077 197.225 274.944 193.27 274.953C162.845 275.027 132.398 276.335 102.06 273.381C98.1245 272.998 98.1613 279.134 102.06 279.514Z" fill="#804A9D"/>
</svg>
