<svg width="164" height="29" viewBox="0 0 164 29" fill="none" xmlns="http://www.w3.org/2000/svg">
<path d="M0.359375 1.875H9.375C12.2188 1.875 14.4375 2.29688 16.0312 3.14062C16.9167 3.60938 17.6719 4.26042 18.2969 5.09375C19.2865 6.4375 19.7812 7.99479 19.7812 9.76562C19.7812 12.0052 19.1667 13.8542 17.9375 15.3125C16.9792 16.4583 15.6562 17.2448 13.9688 17.6719C12.6667 18.0052 11.0938 18.1719 9.25 18.1719H4.54688V27.7969H0.359375V1.875ZM4.54688 5.20312V14.8438H8.51562C10.8594 14.8438 12.4948 14.5312 13.4219 13.9062C14.6094 13.1146 15.2031 11.7708 15.2031 9.875C15.2031 6.76042 13.1458 5.20312 9.03125 5.20312H4.54688ZM24.125 0.796875H28.7344V5.07812H24.125V0.796875ZM24.3125 8.92188H28.5312V27.7969H24.3125V8.92188ZM38.4688 8.92188V12.1875C40.2188 9.77083 42.4062 8.5625 45.0312 8.5625C46.875 8.5625 48.4062 9.09375 49.625 10.1562C51 11.3542 51.6875 13.3125 51.6875 16.0312V27.7969H47.4688V16.5625C47.4688 15.0833 47.1927 13.9479 46.6406 13.1562C46.1094 12.3958 45.2135 12.0156 43.9531 12.0156C42.6615 12.0156 41.4896 12.5573 40.4375 13.6406C39.6667 14.4323 39.0729 15.4531 38.6562 16.7031V27.7969H34.4375V8.92188H38.4688ZM63.2188 3.03125V8.92188H69.1094V11.8906H63.2188V22.1562C63.2188 23.1667 63.3385 23.8646 63.5781 24.25C63.901 24.7812 64.4375 25.0469 65.1875 25.0469C66.1146 25.0469 67.0677 24.6823 68.0469 23.9531L69.0469 26.8594C67.526 27.8281 65.9219 28.3125 64.2344 28.3125C62.4844 28.3125 61.1615 27.7917 60.2656 26.75C59.526 25.8854 59.1562 24.6354 59.1562 23V11.8906H54.9375V8.92188H59.1562V4.89062L63.2188 3.03125ZM90.2812 19.1719H76.2031C76.276 20.8281 76.7969 22.1719 77.7656 23.2031C78.9323 24.4219 80.4167 25.0312 82.2188 25.0312C84.3438 25.0312 86.224 24.0365 87.8594 22.0469L90.3594 24.5781C88.3073 27.1615 85.4635 28.4531 81.8281 28.4531C78.849 28.4531 76.4479 27.5 74.625 25.5938C72.8854 23.7604 72.0156 21.3958 72.0156 18.5C72.0156 16.1458 72.5833 14.099 73.7188 12.3594C74.7292 10.8177 76.0781 9.69792 77.7656 9C78.9219 8.52083 80.1562 8.28125 81.4688 8.28125C83.5625 8.28125 85.349 8.86458 86.8281 10.0312C88.3594 11.2188 89.3906 12.8802 89.9219 15.0156C90.1615 15.9844 90.2812 17.0052 90.2812 18.0781V19.1719ZM86.0938 16.125C86.0104 15.0521 85.7292 14.1562 85.25 13.4375C84.3438 12.1146 83.0417 11.4531 81.3438 11.4531C79.8229 11.4531 78.5729 12.0677 77.5938 13.2969C76.9896 14.0573 76.6146 15 76.4688 16.125H86.0938ZM98.7344 14.5781H98.8594C100.245 10.4427 102.375 8.375 105.25 8.375C106.083 8.375 106.885 8.53646 107.656 8.85938L106.578 12.7969C105.995 12.599 105.396 12.5 104.781 12.5C103.188 12.5 101.859 13.3021 100.797 14.9062C100.089 15.9583 99.5938 17.3125 99.3125 18.9688V27.7969H95.1562V8.92188H99.0938L98.7344 14.5781ZM128.062 19.1719H113.984C114.057 20.8281 114.578 22.1719 115.547 23.2031C116.714 24.4219 118.198 25.0312 120 25.0312C122.125 25.0312 124.005 24.0365 125.641 22.0469L128.141 24.5781C126.089 27.1615 123.245 28.4531 119.609 28.4531C116.63 28.4531 114.229 27.5 112.406 25.5938C110.667 23.7604 109.797 21.3958 109.797 18.5C109.797 16.1458 110.365 14.099 111.5 12.3594C112.51 10.8177 113.859 9.69792 115.547 9C116.703 8.52083 117.938 8.28125 119.25 8.28125C121.344 8.28125 123.13 8.86458 124.609 10.0312C126.141 11.2188 127.172 12.8802 127.703 15.0156C127.943 15.9844 128.062 17.0052 128.062 18.0781V19.1719ZM123.875 16.125C123.792 15.0521 123.51 14.1562 123.031 13.4375C122.125 12.1146 120.823 11.4531 119.125 11.4531C117.604 11.4531 116.354 12.0677 115.375 13.2969C114.771 14.0573 114.396 15 114.25 16.125H123.875ZM133.125 22.5469C135.135 24.0469 137.391 24.7969 139.891 24.7969C142.161 24.7969 143.297 24.1198 143.297 22.7656C143.297 21.7344 142.005 20.7865 139.422 19.9219L137.797 19.3906C135.88 18.7448 134.562 18.1562 133.844 17.625C132.677 16.75 132.094 15.5052 132.094 13.8906C132.094 12.099 132.88 10.6667 134.453 9.59375C135.703 8.73958 137.276 8.3125 139.172 8.3125C142.047 8.3125 144.63 9.02604 146.922 10.4531L144.938 13.6562C143.25 12.375 141.422 11.7344 139.453 11.7344C138.641 11.7344 137.974 11.8802 137.453 12.1719C136.807 12.526 136.484 13.0417 136.484 13.7188C136.484 14.2396 136.766 14.6875 137.328 15.0625C137.776 15.375 138.594 15.7083 139.781 16.0625L141.516 16.5625C145.693 17.8021 147.781 19.8125 147.781 22.5938C147.781 23.9896 147.271 25.2344 146.25 26.3281C144.958 27.7135 142.719 28.4062 139.531 28.4062C136.427 28.4062 133.63 27.5 131.141 25.6875L133.125 22.5469ZM157.656 3.03125V8.92188H163.547V11.8906H157.656V22.1562C157.656 23.1667 157.776 23.8646 158.016 24.25C158.339 24.7812 158.875 25.0469 159.625 25.0469C160.552 25.0469 161.505 24.6823 162.484 23.9531L163.484 26.8594C161.964 27.8281 160.359 28.3125 158.672 28.3125C156.922 28.3125 155.599 27.7917 154.703 26.75C153.964 25.8854 153.594 24.6354 153.594 23V11.8906H149.375V8.92188H153.594V4.89062L157.656 3.03125Z" fill="white"/>
</svg>
