<svg width="183" height="50" viewBox="0 0 183 50" fill="none" xmlns="http://www.w3.org/2000/svg">
<rect width="50" height="50" rx="5" fill="#DAE9FE"/>
<rect x="5.64258" y="37.4819" width="16.3564" height="23.9027" rx="3.5" transform="rotate(-90 5.64258 37.4819)" fill="#24272A" stroke="#DAE9FE"/>
<rect x="36.9363" y="19.1921" width="16.3564" height="23.9027" rx="3.5" transform="rotate(98 36.9363 19.1921)" fill="#24272A" stroke="#DAE9FE"/>
<rect x="44.193" y="20.7848" width="16.3564" height="23.9027" rx="3.5" transform="rotate(115 44.193 20.7848)" fill="#24272A" stroke="#DAE9FE"/>
<path d="M59.2461 25C58.7904 25 58.5625 24.7559 58.5625 24.2676V11.7285C58.5625 11.2402 58.7904 10.9961 59.2461 10.9961H67.625C68.1133 10.9961 68.3574 11.2077 68.3574 11.6309V12.7832C68.3574 13.2064 68.1133 13.418 67.625 13.418H61.4141V16.5234H67.1074C67.5957 16.5234 67.8398 16.735 67.8398 17.1582V18.3105C67.8398 18.7337 67.5957 18.9453 67.1074 18.9453H61.4141V22.5781H67.9375C68.4258 22.5781 68.6699 22.7897 68.6699 23.2129V24.3652C68.6699 24.7884 68.4258 25 67.9375 25H59.2461ZM71.4141 25C71.0234 25 70.8281 24.8047 70.8281 24.4141V15.332C70.8281 14.9414 71.0234 14.7461 71.4141 14.7461H72.957C73.3477 14.7461 73.543 14.9414 73.543 15.332V15.8984H73.582C73.8815 15.3841 74.2624 15.0326 74.7246 14.8438C75.1868 14.6484 75.7435 14.5508 76.3945 14.5508C77.4102 14.5508 78.25 14.8698 78.9141 15.5078C79.5781 16.1458 79.9102 17.3112 79.9102 19.0039V24.4141C79.9102 24.8047 79.7148 25 79.3242 25H77.7617C77.3711 25 77.1758 24.8047 77.1758 24.4141V19.707C77.1758 18.2878 77.0781 17.3926 76.8828 17.0215C76.6875 16.6504 76.2676 16.4648 75.623 16.4648C74.9395 16.4648 74.4251 16.7318 74.0801 17.2656C73.735 17.793 73.5625 18.8932 73.5625 20.5664V24.4141C73.5625 24.8047 73.3672 25 72.9766 25H71.4141ZM82 19.873C82 18.4408 82.3092 17.1973 82.9277 16.1426C83.5527 15.0814 84.6302 14.5508 86.1602 14.5508C86.7461 14.5508 87.2474 14.6354 87.6641 14.8047C88.0807 14.974 88.4583 15.3385 88.7969 15.8984H88.8359L88.875 15.332C88.901 14.9414 89.0768 14.7461 89.4023 14.7461H90.9453C91.3359 14.7461 91.5312 14.9414 91.5312 15.332V24.8926C91.5312 26.4876 91.1016 27.5879 90.2422 28.1934C89.3828 28.7988 88.1393 29.1016 86.5117 29.1016C85.8216 29.1016 85.1836 29.0658 84.5977 28.9941C84.0117 28.9225 83.4193 28.7435 82.8203 28.457C82.5078 28.3073 82.4557 28.0241 82.6641 27.6074L83.0156 26.9043C83.1589 26.6178 83.3965 26.5527 83.7285 26.709C83.9954 26.8327 84.3242 26.9434 84.7148 27.041C85.112 27.1387 85.6133 27.1875 86.2188 27.1875C87.0521 27.1875 87.6901 27.0312 88.1328 26.7188C88.5755 26.4128 88.7969 25.7389 88.7969 24.6973V24.5312C88.7969 24.2708 88.8099 24.0104 88.8359 23.75H88.7969C88.4583 24.3099 88.0807 24.6745 87.6641 24.8438C87.2474 25.013 86.7461 25.0977 86.1602 25.0977C84.6302 25.0977 83.5527 24.5703 82.9277 23.5156C82.3092 22.4544 82 21.2402 82 19.873ZM84.8906 19.873C84.8906 20.8496 85.0241 21.6471 85.291 22.2656C85.5645 22.8776 86.1406 23.1836 87.0195 23.1836C87.5078 23.1836 87.9245 22.9102 88.2695 22.3633C88.6211 21.8099 88.7969 21.0938 88.7969 20.2148V19.4336C88.7969 18.5547 88.6211 17.8418 88.2695 17.2949C87.9245 16.7415 87.5078 16.4648 87.0195 16.4648C86.1406 16.4648 85.5645 16.7741 85.291 17.3926C85.0241 18.0046 84.8906 18.8314 84.8906 19.873ZM94.7734 25C94.3828 25 94.1875 24.8047 94.1875 24.4141V12.8809C94.1875 12.5879 94.2559 12.321 94.3926 12.0801L95.1445 10.7617C95.2878 10.5143 95.457 10.3906 95.6523 10.3906H96.3359C96.7266 10.3906 96.9219 10.5859 96.9219 10.9766V24.4141C96.9219 24.8047 96.7266 25 96.3359 25H94.7734ZM100.164 25C99.7734 25 99.5781 24.8047 99.5781 24.4141V15.332C99.5781 14.9414 99.7734 14.7461 100.164 14.7461H101.727C102.117 14.7461 102.312 14.9414 102.312 15.332V24.4141C102.312 24.8047 102.117 25 101.727 25H100.164ZM100.164 13.2422C99.7734 13.2422 99.5781 13.0469 99.5781 12.6562V11.4062C99.5781 11.0156 99.7734 10.8203 100.164 10.8203H101.727C102.117 10.8203 102.312 11.0156 102.312 11.4062V12.6562C102.312 13.0469 102.117 13.2422 101.727 13.2422H100.164ZM104.764 24.3164C104.445 24.0885 104.357 23.8444 104.5 23.584L104.998 22.6758C105.174 22.3503 105.447 22.3112 105.818 22.5586C106.189 22.806 106.626 22.9883 107.127 23.1055C107.635 23.2227 108.097 23.2812 108.514 23.2812C108.807 23.2812 109.08 23.252 109.334 23.1934C109.588 23.1348 109.803 23.0208 109.979 22.8516C110.154 22.6823 110.242 22.4349 110.242 22.1094C110.242 21.9141 110.19 21.748 110.086 21.6113C109.982 21.4746 109.848 21.3704 109.686 21.2988C109.523 21.2272 109.35 21.1686 109.168 21.123C108.927 21.0645 108.579 20.9668 108.123 20.8301C107.674 20.6934 107.241 20.5339 106.824 20.3516C106.479 20.2018 106.141 19.9935 105.809 19.7266C105.483 19.4531 105.242 19.1504 105.086 18.8184C104.936 18.4863 104.861 18.0762 104.861 17.5879C104.861 16.9303 105.05 16.3542 105.428 15.8594C105.812 15.3646 106.307 15.0228 106.912 14.834C107.518 14.6452 108.273 14.5508 109.178 14.5508C109.79 14.5508 110.385 14.6387 110.965 14.8145C111.544 14.9902 111.958 15.1562 112.205 15.3125C112.596 15.5599 112.693 15.8236 112.498 16.1035L111.902 16.9727C111.72 17.2331 111.427 17.2526 111.023 17.0312C110.717 16.862 110.415 16.7253 110.115 16.6211C109.822 16.5169 109.493 16.4648 109.129 16.4648C108.882 16.4648 108.644 16.4909 108.416 16.543C108.188 16.5951 107.993 16.6927 107.83 16.8359C107.674 16.9792 107.596 17.168 107.596 17.4023C107.596 17.6497 107.667 17.8451 107.811 17.9883C107.96 18.125 108.13 18.2259 108.318 18.291C108.514 18.3561 108.699 18.418 108.875 18.4766C109.24 18.5938 109.607 18.7077 109.979 18.8184C110.35 18.9225 110.727 19.0495 111.111 19.1992C111.443 19.3294 111.766 19.515 112.078 19.7559C112.391 19.9967 112.618 20.3027 112.762 20.6738C112.905 21.0449 112.977 21.4681 112.977 21.9434C112.977 22.5749 112.788 23.1608 112.41 23.7012C112.033 24.2415 111.535 24.6257 110.916 24.8535C110.298 25.0814 109.578 25.1953 108.758 25.1953C107.84 25.1953 107.059 25.1302 106.414 25C105.77 24.8698 105.219 24.6419 104.764 24.3164ZM115.379 25C114.988 25 114.793 24.8047 114.793 24.4141V11.1719C114.793 10.7812 114.988 10.5859 115.379 10.5859H116.941C117.332 10.5859 117.527 10.7812 117.527 11.1719V15.1172C117.527 15.3776 117.514 15.638 117.488 15.8984H117.547C117.846 15.3841 118.227 15.0326 118.689 14.8438C119.152 14.6484 119.708 14.5508 120.359 14.5508C121.375 14.5508 122.215 14.8698 122.879 15.5078C123.543 16.1458 123.875 17.3112 123.875 19.0039V24.4141C123.875 24.8047 123.68 25 123.289 25H121.727C121.336 25 121.141 24.8047 121.141 24.4141V19.707C121.141 18.2878 121.043 17.3926 120.848 17.0215C120.652 16.6504 120.232 16.4648 119.588 16.4648C118.904 16.4648 118.39 16.7318 118.045 17.2656C117.7 17.793 117.527 18.8932 117.527 20.5664V24.4141C117.527 24.8047 117.332 25 116.941 25H115.379ZM132.801 19.873C132.801 18.2129 133.217 16.9108 134.051 15.9668C134.884 15.0228 136.163 14.5508 137.889 14.5508C138.898 14.5508 139.682 14.6842 140.242 14.9512C140.802 15.2181 141.251 15.6087 141.59 16.123C141.792 16.429 141.759 16.6699 141.492 16.8457L140.457 17.5293C140.164 17.7246 139.907 17.6497 139.686 17.3047C139.575 17.1354 139.363 16.9531 139.051 16.7578C138.738 16.5625 138.351 16.4648 137.889 16.4648C137.153 16.4648 136.603 16.7253 136.238 17.2461C135.874 17.7604 135.691 18.6361 135.691 19.873C135.691 21.11 135.874 21.9889 136.238 22.5098C136.603 23.0241 137.153 23.2812 137.889 23.2812C138.416 23.2812 138.842 23.1706 139.168 22.9492C139.493 22.7279 139.799 22.4414 140.086 22.0898C140.333 21.7904 140.594 21.748 140.867 21.9629L141.775 22.6758C142.049 22.8906 142.065 23.1771 141.824 23.5352C141.57 23.9128 141.137 24.2839 140.525 24.6484C139.92 25.013 139.041 25.1953 137.889 25.1953C136.163 25.1953 134.884 24.7233 134.051 23.7793C133.217 22.8353 132.801 21.5332 132.801 19.873ZM143.406 22.2656C143.406 20.9635 144.028 20.0195 145.271 19.4336C146.515 18.8477 147.934 18.5352 149.529 18.4961V18.1055C149.529 17.5065 149.38 17.0833 149.08 16.8359C148.781 16.5885 148.364 16.4648 147.83 16.4648C147.452 16.4648 147.117 16.5202 146.824 16.6309C146.538 16.735 146.287 16.8587 146.072 17.002C145.864 17.1387 145.675 17.2786 145.506 17.4219C145.206 17.6823 144.959 17.6953 144.764 17.4609L143.953 16.4648C143.751 16.2174 143.8 15.9635 144.1 15.7031C144.327 15.5013 144.591 15.3255 144.891 15.1758C145.197 15.026 145.6 14.8861 146.102 14.7559C146.603 14.6191 147.254 14.5508 148.055 14.5508C149.409 14.5508 150.447 14.8633 151.17 15.4883C151.899 16.1133 152.264 17.0345 152.264 18.252V24.4141C152.264 24.8047 152.068 25 151.678 25H150.076C149.725 25 149.549 24.8047 149.549 24.4141V24.1211H149.529C149.145 24.4922 148.683 24.7656 148.143 24.9414C147.609 25.1107 147.117 25.1953 146.668 25.1953C145.6 25.1953 144.79 24.9349 144.236 24.4141C143.683 23.8867 143.406 23.1706 143.406 22.2656ZM146.297 22.207C146.297 22.4349 146.342 22.6335 146.434 22.8027C146.525 22.9655 146.668 23.0859 146.863 23.1641C147.059 23.2422 147.277 23.2812 147.518 23.2812C147.85 23.2812 148.172 23.2357 148.484 23.1445C148.797 23.0534 149.145 22.8385 149.529 22.5V20.3809C148.436 20.5046 147.703 20.6641 147.332 20.8594C146.961 21.0547 146.694 21.2565 146.531 21.4648C146.375 21.6732 146.297 21.9206 146.297 22.207ZM155.516 25C155.125 25 154.93 24.8047 154.93 24.4141V15.332C154.93 14.9414 155.125 14.7461 155.516 14.7461H157.059C157.449 14.7461 157.645 14.9414 157.645 15.332V16.1328H157.684C157.853 15.7161 158.136 15.3483 158.533 15.0293C158.93 14.7103 159.399 14.5508 159.939 14.5508C160.311 14.5508 160.617 14.5964 160.857 14.6875C161.085 14.7721 161.173 14.9284 161.121 15.1562L160.848 16.3184C160.789 16.5788 160.613 16.6569 160.32 16.5527C160.151 16.4941 159.988 16.4648 159.832 16.4648C159.207 16.4648 158.689 16.8392 158.279 17.5879C157.869 18.3366 157.664 19.4271 157.664 20.8594V24.4141C157.664 24.8047 157.469 25 157.078 25H155.516ZM162.059 19.873C162.059 18.4408 162.368 17.1973 162.986 16.1426C163.611 15.0814 164.689 14.5508 166.219 14.5508C166.805 14.5508 167.306 14.6354 167.723 14.8047C168.139 14.974 168.517 15.3385 168.855 15.8984H168.895C168.868 15.638 168.855 15.3776 168.855 15.1172V11.1719C168.855 10.7812 169.051 10.5859 169.441 10.5859H171.004C171.395 10.5859 171.59 10.7812 171.59 11.1719V24.4141C171.59 24.8047 171.395 25 171.004 25H169.461C169.135 25 168.96 24.8047 168.934 24.4141L168.895 23.8477H168.855C168.517 24.4076 168.139 24.7721 167.723 24.9414C167.306 25.1107 166.805 25.1953 166.219 25.1953C164.689 25.1953 163.611 24.668 162.986 23.6133C162.368 22.5521 162.059 21.3053 162.059 19.873ZM164.949 19.873C164.949 20.9147 165.083 21.7448 165.35 22.3633C165.623 22.9753 166.199 23.2812 167.078 23.2812C167.566 23.2812 167.983 23.0078 168.328 22.4609C168.68 21.9076 168.855 21.1914 168.855 20.3125V19.4336C168.855 18.5547 168.68 17.8418 168.328 17.2949C167.983 16.7415 167.566 16.4648 167.078 16.4648C166.199 16.4648 165.623 16.7741 165.35 17.3926C165.083 18.0046 164.949 18.8314 164.949 19.873ZM174.041 24.3164C173.722 24.0885 173.634 23.8444 173.777 23.584L174.275 22.6758C174.451 22.3503 174.725 22.3112 175.096 22.5586C175.467 22.806 175.903 22.9883 176.404 23.1055C176.912 23.2227 177.374 23.2812 177.791 23.2812C178.084 23.2812 178.357 23.252 178.611 23.1934C178.865 23.1348 179.08 23.0208 179.256 22.8516C179.432 22.6823 179.52 22.4349 179.52 22.1094C179.52 21.9141 179.467 21.748 179.363 21.6113C179.259 21.4746 179.126 21.3704 178.963 21.2988C178.8 21.2272 178.628 21.1686 178.445 21.123C178.204 21.0645 177.856 20.9668 177.4 20.8301C176.951 20.6934 176.518 20.5339 176.102 20.3516C175.757 20.2018 175.418 19.9935 175.086 19.7266C174.76 19.4531 174.52 19.1504 174.363 18.8184C174.214 18.4863 174.139 18.0762 174.139 17.5879C174.139 16.9303 174.327 16.3542 174.705 15.8594C175.089 15.3646 175.584 15.0228 176.189 14.834C176.795 14.6452 177.55 14.5508 178.455 14.5508C179.067 14.5508 179.663 14.6387 180.242 14.8145C180.822 14.9902 181.235 15.1562 181.482 15.3125C181.873 15.5599 181.971 15.8236 181.775 16.1035L181.18 16.9727C180.997 17.2331 180.704 17.2526 180.301 17.0312C179.995 16.862 179.692 16.7253 179.393 16.6211C179.1 16.5169 178.771 16.4648 178.406 16.4648C178.159 16.4648 177.921 16.4909 177.693 16.543C177.465 16.5951 177.27 16.6927 177.107 16.8359C176.951 16.9792 176.873 17.168 176.873 17.4023C176.873 17.6497 176.945 17.8451 177.088 17.9883C177.238 18.125 177.407 18.2259 177.596 18.291C177.791 18.3561 177.977 18.418 178.152 18.4766C178.517 18.5938 178.885 18.7077 179.256 18.8184C179.627 18.9225 180.005 19.0495 180.389 19.1992C180.721 19.3294 181.043 19.515 181.355 19.7559C181.668 19.9967 181.896 20.3027 182.039 20.6738C182.182 21.0449 182.254 21.4681 182.254 21.9434C182.254 22.5749 182.065 23.1608 181.688 23.7012C181.31 24.2415 180.812 24.6257 180.193 24.8535C179.575 25.0814 178.855 25.1953 178.035 25.1953C177.117 25.1953 176.336 25.1302 175.691 25C175.047 24.8698 174.497 24.6419 174.041 24.3164Z" fill="#DAE9FE"/>
<path d="M59.415 38.8584C59.2653 38.777 59.2197 38.6712 59.2783 38.541L59.4395 38.1943C59.5111 38.0381 59.6299 38.0153 59.7959 38.126C60.0596 38.2985 60.3232 38.3848 60.5869 38.3848C60.9027 38.3848 61.1077 38.279 61.2021 38.0674C61.2965 37.8525 61.3438 37.5482 61.3438 37.1543V32.2666C61.3438 32.0876 61.4251 31.998 61.5879 31.998H62.0371C62.1999 31.998 62.2812 32.0876 62.2812 32.2666V37.042C62.2812 37.6865 62.1803 38.1992 61.9785 38.5801C61.7767 38.9577 61.3047 39.1465 60.5625 39.1465C60.1556 39.1465 59.7731 39.0505 59.415 38.8584ZM63.707 37.2129V34.0928C63.707 33.9463 63.7803 33.873 63.9268 33.873H64.3467C64.4932 33.873 64.5664 33.9463 64.5664 34.0928V36.9785C64.5664 37.6165 64.6722 38.0218 64.8838 38.1943C65.0954 38.3636 65.3574 38.4482 65.6699 38.4482C66.0801 38.4482 66.3942 38.3229 66.6123 38.0723C66.8304 37.8184 66.9395 37.3854 66.9395 36.7734V34.0928C66.9395 33.9463 67.0127 33.873 67.1592 33.873H67.5791C67.7256 33.873 67.7988 33.9463 67.7988 34.0928V38.7803C67.7988 38.9268 67.7256 39 67.5791 39H67.1689C67.0225 39 66.9492 38.9268 66.9492 38.7803V38.3896H66.9297C66.7181 38.624 66.4902 38.7982 66.2461 38.9121C66.002 39.026 65.7041 39.083 65.3525 39.083C64.7829 39.083 64.3662 38.917 64.1025 38.585C63.8389 38.2497 63.707 37.7923 63.707 37.2129ZM68.9854 38.5215C68.8844 38.4271 68.8633 38.3392 68.9219 38.2578L69.1416 37.9502C69.2132 37.8525 69.319 37.8574 69.459 37.9648C69.651 38.1113 69.8643 38.2285 70.0986 38.3164C70.3363 38.4043 70.6064 38.4482 70.9092 38.4482C71.0882 38.4482 71.2477 38.4271 71.3877 38.3848C71.5277 38.3392 71.6497 38.2562 71.7539 38.1357C71.8613 38.0153 71.915 37.8542 71.915 37.6523C71.915 37.5352 71.889 37.4245 71.8369 37.3203C71.7881 37.2161 71.71 37.1331 71.6025 37.0713C71.4984 37.0062 71.3958 36.9557 71.2949 36.9199C71.1289 36.8581 70.9629 36.8076 70.7969 36.7686C70.6341 36.7262 70.4193 36.6628 70.1523 36.5781C69.9733 36.5228 69.804 36.4447 69.6445 36.3438C69.485 36.2396 69.3451 36.0996 69.2246 35.9238C69.1074 35.748 69.0488 35.5055 69.0488 35.1963C69.0488 34.8805 69.1449 34.6087 69.3369 34.3809C69.529 34.153 69.7699 33.9984 70.0596 33.917C70.3493 33.8324 70.6309 33.79 70.9043 33.79C71.3079 33.79 71.6318 33.8372 71.876 33.9316C72.1234 34.0228 72.3366 34.1318 72.5156 34.2588C72.6198 34.3337 72.6344 34.4199 72.5596 34.5176L72.3398 34.8105C72.2715 34.9049 72.1657 34.9017 72.0225 34.8008C71.902 34.7161 71.7311 34.6364 71.5098 34.5615C71.2884 34.4867 71.0947 34.4492 70.9287 34.4492C70.7236 34.4492 70.5479 34.472 70.4014 34.5176C70.2549 34.5632 70.1361 34.6413 70.0449 34.752C69.9538 34.8626 69.9082 34.9928 69.9082 35.1426C69.9082 35.2565 69.9261 35.359 69.9619 35.4502C69.9977 35.5381 70.0645 35.6195 70.1621 35.6943C70.2598 35.7692 70.3965 35.8294 70.5723 35.875C70.8457 35.9466 71.0947 36.0117 71.3193 36.0703C71.5472 36.1289 71.7523 36.2005 71.9346 36.2852C72.1722 36.3958 72.3545 36.5179 72.4814 36.6514C72.6117 36.7848 72.7012 36.9297 72.75 37.0859C72.7988 37.2389 72.8232 37.4098 72.8232 37.5986C72.8232 37.9469 72.7191 38.2415 72.5107 38.4824C72.3057 38.7233 72.0762 38.8844 71.8223 38.9658C71.5684 39.0439 71.2624 39.083 70.9043 39.083C70.4193 39.083 70.0026 39.0146 69.6543 38.8779C69.3092 38.738 69.0863 38.6191 68.9854 38.5215ZM73.5459 34.5176C73.3994 34.5176 73.3262 34.4606 73.3262 34.3467V34.0439C73.3262 33.93 73.3994 33.873 73.5459 33.873H74.1221V33.4336C74.1221 33.3685 74.1383 33.3066 74.1709 33.248L74.5127 32.6279C74.5745 32.514 74.625 32.457 74.6641 32.457H74.835C74.9326 32.457 74.9814 32.514 74.9814 32.6279V33.873H76.0215C76.168 33.873 76.2412 33.93 76.2412 34.0439V34.3467C76.2412 34.4606 76.168 34.5176 76.0215 34.5176H74.9814V37.6279C74.9814 37.9697 75.0319 38.1927 75.1328 38.2969C75.237 38.3978 75.3607 38.4482 75.5039 38.4482C75.6146 38.4482 75.7464 38.4157 75.8994 38.3506C76.0557 38.2855 76.1631 38.2301 76.2217 38.1846C76.2803 38.139 76.3258 38.1536 76.3584 38.2285L76.5195 38.6045C76.5456 38.6696 76.526 38.7217 76.4609 38.7607C76.334 38.8356 76.1484 38.9089 75.9043 38.9805C75.6602 39.0488 75.416 39.083 75.1719 39.083C74.8333 39.083 74.5729 38.9609 74.3906 38.7168C74.2116 38.4727 74.1221 38.1276 74.1221 37.6816V34.5176H73.5459ZM80.626 38.5215C80.5251 38.4271 80.5039 38.3392 80.5625 38.2578L80.7822 37.9502C80.8538 37.8525 80.9596 37.8574 81.0996 37.9648C81.2917 38.1113 81.5049 38.2285 81.7393 38.3164C81.9769 38.4043 82.2471 38.4482 82.5498 38.4482C82.7288 38.4482 82.8883 38.4271 83.0283 38.3848C83.1683 38.3392 83.2904 38.2562 83.3945 38.1357C83.502 38.0153 83.5557 37.8542 83.5557 37.6523C83.5557 37.5352 83.5296 37.4245 83.4775 37.3203C83.4287 37.2161 83.3506 37.1331 83.2432 37.0713C83.139 37.0062 83.0365 36.9557 82.9355 36.9199C82.7695 36.8581 82.6035 36.8076 82.4375 36.7686C82.2747 36.7262 82.0599 36.6628 81.793 36.5781C81.6139 36.5228 81.4447 36.4447 81.2852 36.3438C81.1257 36.2396 80.9857 36.0996 80.8652 35.9238C80.748 35.748 80.6895 35.5055 80.6895 35.1963C80.6895 34.8805 80.7855 34.6087 80.9775 34.3809C81.1696 34.153 81.4105 33.9984 81.7002 33.917C81.9899 33.8324 82.2715 33.79 82.5449 33.79C82.9486 33.79 83.2725 33.8372 83.5166 33.9316C83.764 34.0228 83.9772 34.1318 84.1562 34.2588C84.2604 34.3337 84.2751 34.4199 84.2002 34.5176L83.9805 34.8105C83.9121 34.9049 83.8063 34.9017 83.6631 34.8008C83.5426 34.7161 83.3717 34.6364 83.1504 34.5615C82.929 34.4867 82.7354 34.4492 82.5693 34.4492C82.3643 34.4492 82.1885 34.472 82.042 34.5176C81.8955 34.5632 81.7767 34.6413 81.6855 34.752C81.5944 34.8626 81.5488 34.9928 81.5488 35.1426C81.5488 35.2565 81.5667 35.359 81.6025 35.4502C81.6383 35.5381 81.7051 35.6195 81.8027 35.6943C81.9004 35.7692 82.0371 35.8294 82.2129 35.875C82.4863 35.9466 82.7354 36.0117 82.96 36.0703C83.1878 36.1289 83.3929 36.2005 83.5752 36.2852C83.8128 36.3958 83.9951 36.5179 84.1221 36.6514C84.2523 36.7848 84.3418 36.9297 84.3906 37.0859C84.4395 37.2389 84.4639 37.4098 84.4639 37.5986C84.4639 37.9469 84.3597 38.2415 84.1514 38.4824C83.9463 38.7233 83.7168 38.8844 83.4629 38.9658C83.209 39.0439 82.903 39.083 82.5449 39.083C82.0599 39.083 81.6432 39.0146 81.2949 38.8779C80.9499 38.738 80.7269 38.6191 80.626 38.5215ZM85.1572 36.4365C85.1572 35.6715 85.346 35.04 85.7236 34.542C86.1045 34.0407 86.6855 33.79 87.4668 33.79C87.9941 33.79 88.3962 33.8844 88.6729 34.0732C88.9528 34.2588 89.1546 34.4492 89.2783 34.6445C89.3467 34.752 89.332 34.8382 89.2344 34.9033L88.9268 35.1035C88.8291 35.1719 88.7314 35.1279 88.6338 34.9717C88.5394 34.8219 88.4059 34.6934 88.2334 34.5859C88.0641 34.4785 87.8086 34.4248 87.4668 34.4248C87.0208 34.4248 86.6758 34.5892 86.4316 34.918C86.1875 35.2467 86.0654 35.7529 86.0654 36.4365C86.0654 37.1201 86.1875 37.6263 86.4316 37.9551C86.6758 38.2839 87.0208 38.4482 87.4668 38.4482C87.8281 38.4482 88.1048 38.3799 88.2969 38.2432C88.4889 38.1032 88.6289 37.9518 88.7168 37.7891C88.8014 37.6361 88.8975 37.5921 89.0049 37.6572L89.332 37.8525C89.4297 37.9111 89.4443 37.999 89.376 38.1162C89.2946 38.2562 89.109 38.4531 88.8193 38.707C88.5329 38.9577 88.082 39.083 87.4668 39.083C86.6855 39.083 86.1045 38.834 85.7236 38.3359C85.346 37.8346 85.1572 37.2015 85.1572 36.4365ZM90.665 39C90.5186 39 90.4453 38.9268 90.4453 38.7803V34.0928C90.4453 33.9463 90.5186 33.873 90.665 33.873H91.0752C91.2217 33.873 91.2949 33.9463 91.2949 34.0928V34.6787H91.3145C91.4707 34.3857 91.6546 34.1644 91.8662 34.0146C92.0778 33.8649 92.3415 33.79 92.6572 33.79C92.8656 33.79 93.012 33.8079 93.0967 33.8438C93.1715 33.873 93.1992 33.9219 93.1797 33.9902L93.0674 34.3906C93.0511 34.4492 93.0088 34.472 92.9404 34.459C92.8265 34.4362 92.7191 34.4248 92.6182 34.4248C92.2373 34.4248 91.9232 34.5973 91.6758 34.9424C91.4284 35.2842 91.3047 35.7513 91.3047 36.3438V38.7803C91.3047 38.9268 91.2314 39 91.085 39H90.665ZM93.6924 36.4365C93.6924 35.6715 93.8942 35.04 94.2979 34.542C94.7048 34.0407 95.2988 33.79 96.0801 33.79C96.8613 33.79 97.4538 34.0407 97.8574 34.542C98.2643 35.04 98.4678 35.6715 98.4678 36.4365C98.4678 37.2015 98.2643 37.8346 97.8574 38.3359C97.4538 38.834 96.8613 39.083 96.0801 39.083C95.2988 39.083 94.7048 38.834 94.2979 38.3359C93.8942 37.8346 93.6924 37.2015 93.6924 36.4365ZM94.6006 36.4365C94.6006 37.1201 94.7357 37.6263 95.0059 37.9551C95.276 38.2839 95.6341 38.4482 96.0801 38.4482C96.526 38.4482 96.8841 38.2839 97.1543 37.9551C97.4245 37.6263 97.5596 37.1201 97.5596 36.4365C97.5596 35.7529 97.4245 35.2467 97.1543 34.918C96.8841 34.5892 96.526 34.4248 96.0801 34.4248C95.6341 34.4248 95.276 34.5892 95.0059 34.918C94.7357 35.2467 94.6006 35.7529 94.6006 36.4365ZM99.7959 39C99.6494 39 99.5762 38.9268 99.5762 38.7803V32.6865C99.5762 32.6214 99.5924 32.5596 99.625 32.501L99.9668 31.8809C100.029 31.7669 100.079 31.71 100.118 31.71H100.289C100.387 31.71 100.436 31.7669 100.436 31.8809V38.7803C100.436 38.9268 100.362 39 100.216 39H99.7959ZM102.042 39C101.896 39 101.822 38.9268 101.822 38.7803V32.6865C101.822 32.6214 101.839 32.5596 101.871 32.501L102.213 31.8809C102.275 31.7669 102.325 31.71 102.364 31.71H102.535C102.633 31.71 102.682 31.7669 102.682 31.8809V38.7803C102.682 38.9268 102.608 39 102.462 39H102.042ZM107.149 34.5176C107.003 34.5176 106.93 34.4606 106.93 34.3467V34.0439C106.93 33.93 107.003 33.873 107.149 33.873H107.726V33.4336C107.726 33.3685 107.742 33.3066 107.774 33.248L108.116 32.6279C108.178 32.514 108.229 32.457 108.268 32.457H108.438C108.536 32.457 108.585 32.514 108.585 32.6279V33.873H109.625C109.771 33.873 109.845 33.93 109.845 34.0439V34.3467C109.845 34.4606 109.771 34.5176 109.625 34.5176H108.585V37.6279C108.585 37.9697 108.635 38.1927 108.736 38.2969C108.84 38.3978 108.964 38.4482 109.107 38.4482C109.218 38.4482 109.35 38.4157 109.503 38.3506C109.659 38.2855 109.767 38.2301 109.825 38.1846C109.884 38.139 109.929 38.1536 109.962 38.2285L110.123 38.6045C110.149 38.6696 110.13 38.7217 110.064 38.7607C109.938 38.8356 109.752 38.9089 109.508 38.9805C109.264 39.0488 109.02 39.083 108.775 39.083C108.437 39.083 108.176 38.9609 107.994 38.7168C107.815 38.4727 107.726 38.1276 107.726 37.6816V34.5176H107.149ZM111.319 39C111.173 39 111.1 38.9268 111.1 38.7803V32.0127C111.1 31.8662 111.173 31.793 111.319 31.793H111.739C111.886 31.793 111.959 31.8662 111.959 32.0127V34.1904C111.959 34.2881 111.956 34.3857 111.949 34.4834H111.969C112.18 34.249 112.408 34.0749 112.652 33.9609C112.896 33.847 113.201 33.79 113.565 33.79C114.158 33.79 114.583 33.9577 114.84 34.293C115.1 34.625 115.23 35.0807 115.23 35.6602V38.7803C115.23 38.9268 115.157 39 115.011 39H114.591C114.444 39 114.371 38.9268 114.371 38.7803V35.8945C114.371 35.2565 114.265 34.8529 114.054 34.6836C113.842 34.5111 113.574 34.4248 113.248 34.4248C112.825 34.4248 112.504 34.5518 112.286 34.8057C112.068 35.0563 111.959 35.4876 111.959 36.0996V38.7803C111.959 38.9268 111.886 39 111.739 39H111.319ZM116.827 39C116.681 39 116.607 38.9268 116.607 38.7803V34.0928C116.607 33.9463 116.681 33.873 116.827 33.873H117.237C117.384 33.873 117.457 33.9463 117.457 34.0928V34.6787H117.477C117.633 34.3857 117.817 34.1644 118.028 34.0146C118.24 33.8649 118.504 33.79 118.819 33.79C119.028 33.79 119.174 33.8079 119.259 33.8438C119.334 33.873 119.361 33.9219 119.342 33.9902L119.229 34.3906C119.213 34.4492 119.171 34.472 119.103 34.459C118.989 34.4362 118.881 34.4248 118.78 34.4248C118.399 34.4248 118.085 34.5973 117.838 34.9424C117.59 35.2842 117.467 35.7513 117.467 36.3438V38.7803C117.467 38.9268 117.394 39 117.247 39H116.827ZM119.854 36.4365C119.854 35.6715 120.056 35.04 120.46 34.542C120.867 34.0407 121.461 33.79 122.242 33.79C123.023 33.79 123.616 34.0407 124.02 34.542C124.426 35.04 124.63 35.6715 124.63 36.4365C124.63 37.2015 124.426 37.8346 124.02 38.3359C123.616 38.834 123.023 39.083 122.242 39.083C121.461 39.083 120.867 38.834 120.46 38.3359C120.056 37.8346 119.854 37.2015 119.854 36.4365ZM120.763 36.4365C120.763 37.1201 120.898 37.6263 121.168 37.9551C121.438 38.2839 121.796 38.4482 122.242 38.4482C122.688 38.4482 123.046 38.2839 123.316 37.9551C123.587 37.6263 123.722 37.1201 123.722 36.4365C123.722 35.7529 123.587 35.2467 123.316 34.918C123.046 34.5892 122.688 34.4248 122.242 34.4248C121.796 34.4248 121.438 34.5892 121.168 34.918C120.898 35.2467 120.763 35.7529 120.763 36.4365ZM125.729 37.2129V34.0928C125.729 33.9463 125.802 33.873 125.948 33.873H126.368C126.515 33.873 126.588 33.9463 126.588 34.0928V36.9785C126.588 37.6165 126.694 38.0218 126.905 38.1943C127.117 38.3636 127.379 38.4482 127.691 38.4482C128.102 38.4482 128.416 38.3229 128.634 38.0723C128.852 37.8184 128.961 37.3854 128.961 36.7734V34.0928C128.961 33.9463 129.034 33.873 129.181 33.873H129.601C129.747 33.873 129.82 33.9463 129.82 34.0928V38.7803C129.82 38.9268 129.747 39 129.601 39H129.19C129.044 39 128.971 38.9268 128.971 38.7803V38.3896H128.951C128.74 38.624 128.512 38.7982 128.268 38.9121C128.023 39.026 127.726 39.083 127.374 39.083C126.804 39.083 126.388 38.917 126.124 38.585C125.86 38.2497 125.729 37.7923 125.729 37.2129ZM130.929 36.4365C130.929 35.7367 131.098 35.1214 131.437 34.5908C131.775 34.057 132.27 33.79 132.921 33.79C133.295 33.79 133.595 33.8519 133.819 33.9756C134.044 34.0993 134.246 34.2686 134.425 34.4834H134.435L134.464 34.0928C134.474 33.9463 134.537 33.873 134.654 33.873H135.064C135.211 33.873 135.284 33.9463 135.284 34.0928V39.0391C135.284 39.6641 135.139 40.1523 134.85 40.5039C134.563 40.8587 133.995 41.0361 133.146 41.0361C132.576 41.0361 132.149 40.971 131.866 40.8408C131.583 40.7139 131.381 40.5788 131.261 40.4355C131.173 40.3281 131.168 40.237 131.246 40.1621L131.515 39.8984C131.59 39.8268 131.694 39.8496 131.827 39.9668C132 40.123 132.166 40.2337 132.325 40.2988C132.485 40.3672 132.76 40.4014 133.15 40.4014C133.593 40.4014 133.915 40.307 134.117 40.1182C134.322 39.9294 134.425 39.5387 134.425 38.9463V38.6533C134.425 38.5524 134.428 38.4531 134.435 38.3555H134.425C134.256 38.5801 134.055 38.7575 133.824 38.8877C133.596 39.0179 133.295 39.083 132.921 39.083C132.27 39.083 131.775 38.8177 131.437 38.2871C131.098 37.7533 130.929 37.1364 130.929 36.4365ZM131.837 36.4365C131.837 37.0355 131.939 37.5205 132.145 37.8916C132.353 38.2627 132.704 38.4482 133.199 38.4482C133.551 38.4482 133.842 38.3294 134.073 38.0918C134.308 37.8509 134.425 37.4863 134.425 36.998V35.875C134.425 35.3867 134.308 35.0238 134.073 34.7861C133.842 34.5452 133.551 34.4248 133.199 34.4248C132.704 34.4248 132.353 34.6104 132.145 34.9814C131.939 35.3525 131.837 35.8376 131.837 36.4365ZM136.896 39C136.749 39 136.676 38.9268 136.676 38.7803V32.0127C136.676 31.8662 136.749 31.793 136.896 31.793H137.315C137.462 31.793 137.535 31.8662 137.535 32.0127V34.1904C137.535 34.2881 137.532 34.3857 137.525 34.4834H137.545C137.757 34.249 137.984 34.0749 138.229 33.9609C138.473 33.847 138.777 33.79 139.142 33.79C139.734 33.79 140.159 33.9577 140.416 34.293C140.676 34.625 140.807 35.0807 140.807 35.6602V38.7803C140.807 38.9268 140.733 39 140.587 39H140.167C140.021 39 139.947 38.9268 139.947 38.7803V35.8945C139.947 35.2565 139.841 34.8529 139.63 34.6836C139.418 34.5111 139.15 34.4248 138.824 34.4248C138.401 34.4248 138.08 34.5518 137.862 34.8057C137.644 35.0563 137.535 35.4876 137.535 36.0996V38.7803C137.535 38.9268 137.462 39 137.315 39H136.896Z" fill="#DAE9FE"/>
</svg>
