<svg width="158" height="26" viewBox="0 0 158 26" fill="none" xmlns="http://www.w3.org/2000/svg">
<path d="M1.864 25C1.39467 25 1 24.84 0.68 24.52C0.36 24.2 0.2 23.8053 0.2 23.336V1.672C0.2 1.18133 0.36 0.786666 0.68 0.487999C1 0.167999 1.39467 0.00799942 1.864 0.00799942H7.624C9.224 0.00799942 10.6427 0.349333 11.88 1.032C13.1173 1.69333 14.0773 2.61067 14.76 3.784C15.464 4.95733 15.816 6.32267 15.816 7.88C15.816 9.33067 15.464 10.6213 14.76 11.752C14.0773 12.8827 13.1173 13.768 11.88 14.408C10.6427 15.048 9.224 15.368 7.624 15.368H3.528V23.336C3.528 23.8053 3.368 24.2 3.048 24.52C2.74933 24.84 2.35467 25 1.864 25ZM15.144 25C14.8453 25 14.568 24.936 14.312 24.808C14.0773 24.68 13.8747 24.4773 13.704 24.2L7.944 14.92L11.176 13.992L16.424 22.44C16.808 23.0587 16.8613 23.6453 16.584 24.2C16.3067 24.7333 15.8267 25 15.144 25ZM3.528 12.296H7.624C8.60533 12.296 9.46933 12.1147 10.216 11.752C10.9627 11.368 11.5493 10.8453 11.976 10.184C12.4027 9.50133 12.616 8.73333 12.616 7.88C12.616 6.94133 12.4027 6.10933 11.976 5.384C11.5493 4.65867 10.9627 4.09333 10.216 3.688C9.46933 3.28267 8.60533 3.08 7.624 3.08H3.528V12.296ZM28.3228 25.128C26.5521 25.128 24.9734 24.7547 23.5868 24.008C22.2214 23.24 21.1441 22.1947 20.3548 20.872C19.5868 19.528 19.2028 17.992 19.2028 16.264C19.2028 14.5147 19.5654 12.9787 20.2908 11.656C21.0374 10.312 22.0614 9.26667 23.3628 8.52C24.6641 7.752 26.1574 7.368 27.8428 7.368C29.5068 7.368 30.9361 7.74133 32.1308 8.488C33.3254 9.21333 34.2321 10.2267 34.8507 11.528C35.4908 12.808 35.8108 14.2907 35.8108 15.976C35.8108 16.3813 35.6721 16.7227 35.3948 17C35.1174 17.256 34.7654 17.384 34.3388 17.384H21.4427V14.824H34.2428L32.9308 15.72C32.9094 14.6533 32.6961 13.704 32.2908 12.872C31.8854 12.0187 31.3094 11.3467 30.5628 10.856C29.8161 10.3653 28.9094 10.12 27.8428 10.12C26.6268 10.12 25.5814 10.3867 24.7068 10.92C23.8534 11.4533 23.2028 12.1893 22.7548 13.128C22.3068 14.0453 22.0828 15.0907 22.0828 16.264C22.0828 17.4373 22.3494 18.4827 22.8828 19.4C23.4161 20.3173 24.1521 21.0427 25.0908 21.576C26.0294 22.1093 27.1068 22.376 28.3228 22.376C28.9841 22.376 29.6561 22.2587 30.3388 22.024C31.0428 21.768 31.6081 21.48 32.0348 21.16C32.3548 20.9253 32.6961 20.808 33.0588 20.808C33.4428 20.7867 33.7734 20.8933 34.0508 21.128C34.4134 21.448 34.6054 21.8 34.6268 22.184C34.6481 22.568 34.4774 22.8987 34.1147 23.176C33.3894 23.752 32.4828 24.2213 31.3948 24.584C30.3281 24.9467 29.3041 25.128 28.3228 25.128ZM46.3418 25.128C44.8484 25.128 43.4618 24.904 42.1818 24.456C40.9231 23.9867 39.9418 23.4 39.2378 22.696C38.9178 22.3547 38.7791 21.9707 38.8218 21.544C38.8858 21.096 39.0991 20.7333 39.4618 20.456C39.8884 20.1147 40.3044 19.976 40.7098 20.04C41.1364 20.0827 41.4991 20.264 41.7977 20.584C42.1604 20.9893 42.7364 21.3733 43.5258 21.736C44.3364 22.0773 45.2324 22.248 46.2138 22.248C47.4511 22.248 48.3898 22.0453 49.0298 21.64C49.6911 21.2347 50.0324 20.712 50.0538 20.072C50.0751 19.432 49.7658 18.8773 49.1258 18.408C48.5071 17.9387 47.3658 17.5547 45.7018 17.256C43.5471 16.8293 41.9791 16.1893 40.9978 15.336C40.0378 14.4827 39.5578 13.4373 39.5578 12.2C39.5578 11.112 39.8778 10.216 40.5178 9.512C41.1578 8.78667 41.9791 8.25333 42.9818 7.912C43.9844 7.54933 45.0298 7.368 46.1178 7.368C47.5258 7.368 48.7738 7.592 49.8618 8.04C50.9498 8.488 51.8138 9.10667 52.4538 9.896C52.7524 10.2373 52.8911 10.6 52.8698 10.984C52.8484 11.3467 52.6671 11.656 52.3258 11.912C51.9844 12.1467 51.5791 12.2213 51.1098 12.136C50.6404 12.0507 50.2458 11.8587 49.9258 11.56C49.3924 11.048 48.8164 10.696 48.1978 10.504C47.5791 10.312 46.8644 10.216 46.0538 10.216C45.1151 10.216 44.3151 10.376 43.6538 10.696C43.0138 11.016 42.6938 11.4853 42.6938 12.104C42.6938 12.488 42.7898 12.84 42.9818 13.16C43.1951 13.4587 43.6004 13.736 44.1978 13.992C44.7951 14.2267 45.6698 14.4613 46.8218 14.696C48.4218 15.016 49.6804 15.4213 50.5978 15.912C51.5364 16.4027 52.2084 16.9787 52.6138 17.64C53.0191 18.28 53.2218 19.0267 53.2218 19.88C53.2218 20.8613 52.9551 21.7467 52.4218 22.536C51.9098 23.3253 51.1418 23.9547 50.1178 24.424C49.1151 24.8933 47.8564 25.128 46.3418 25.128ZM63.7168 25C62.6501 25 61.6901 24.7333 60.8368 24.2C59.9834 23.6453 59.3114 22.8987 58.8208 21.96C58.3301 21.0213 58.0848 19.9653 58.0848 18.792V3.528C58.0848 3.05867 58.2341 2.67467 58.5328 2.376C58.8314 2.07733 59.2154 1.928 59.6848 1.928C60.1541 1.928 60.5381 2.07733 60.8368 2.376C61.1354 2.67467 61.2848 3.05867 61.2848 3.528V18.792C61.2848 19.6453 61.5194 20.36 61.9888 20.936C62.4581 21.512 63.0341 21.8 63.7168 21.8H64.8048C65.1888 21.8 65.5088 21.9493 65.7648 22.248C66.0421 22.5467 66.1808 22.9307 66.1808 23.4C66.1808 23.8693 65.9994 24.2533 65.6368 24.552C65.2954 24.8507 64.8474 25 64.2928 25H63.7168ZM56.6128 10.888C56.1648 10.888 55.8021 10.76 55.5247 10.504C55.2474 10.248 55.1088 9.928 55.1088 9.544C55.1088 9.11733 55.2474 8.776 55.5247 8.52C55.8021 8.264 56.1648 8.136 56.6128 8.136H64.0048C64.4528 8.136 64.8154 8.264 65.0928 8.52C65.3701 8.776 65.5088 9.11733 65.5088 9.544C65.5088 9.928 65.3701 10.248 65.0928 10.504C64.8154 10.76 64.4528 10.888 64.0048 10.888H56.6128ZM72.1765 25C71.7072 25 71.3125 24.84 70.9925 24.52C70.6725 24.2 70.5125 23.8053 70.5125 23.336V1.672C70.5125 1.18133 70.6725 0.786666 70.9925 0.487999C71.3125 0.167999 71.7072 0.00799942 72.1765 0.00799942C72.6672 0.00799942 73.0618 0.167999 73.3605 0.487999C73.6805 0.786666 73.8405 1.18133 73.8405 1.672V23.336C73.8405 23.8053 73.6805 24.2 73.3605 24.52C73.0618 24.84 72.6672 25 72.1765 25ZM94.6953 25.032C94.2259 25.032 93.8313 24.8827 93.5113 24.584C93.2126 24.264 93.0633 23.8693 93.0633 23.4V15.528C93.0633 14.312 92.8393 13.32 92.3913 12.552C91.9433 11.784 91.3353 11.2187 90.5673 10.856C89.8206 10.472 88.9566 10.28 87.9753 10.28C87.0793 10.28 86.2686 10.4613 85.5433 10.824C84.8179 11.1867 84.2419 11.6773 83.8153 12.296C83.3886 12.8933 83.1753 13.5867 83.1753 14.376H81.1593C81.1593 13.032 81.4793 11.8373 82.1193 10.792C82.7806 9.72533 83.6766 8.88267 84.8073 8.264C85.9379 7.64533 87.2073 7.336 88.6153 7.336C90.0873 7.336 91.3993 7.656 92.5513 8.296C93.7246 8.91467 94.6419 9.832 95.3033 11.048C95.9859 12.264 96.3273 13.7573 96.3273 15.528V23.4C96.3273 23.8693 96.1673 24.264 95.8472 24.584C95.5486 24.8827 95.1646 25.032 94.6953 25.032ZM81.5433 25.032C81.0739 25.032 80.6793 24.8827 80.3593 24.584C80.0606 24.264 79.9113 23.8693 79.9113 23.4V9.128C79.9113 8.63733 80.0606 8.24266 80.3593 7.944C80.6793 7.64533 81.0739 7.496 81.5433 7.496C82.0339 7.496 82.4286 7.64533 82.7273 7.944C83.0259 8.24266 83.1753 8.63733 83.1753 9.128V23.4C83.1753 23.8693 83.0259 24.264 82.7273 24.584C82.4286 24.8827 82.0339 25.032 81.5433 25.032ZM103.708 25C103.238 25 102.844 24.84 102.524 24.52C102.204 24.2 102.044 23.8053 102.044 23.336V1.672C102.044 1.18133 102.204 0.786666 102.524 0.487999C102.844 0.167999 103.238 0.00799942 103.708 0.00799942H110.108C111.708 0.00799942 113.126 0.359999 114.364 1.064C115.601 1.768 116.561 2.74933 117.244 4.008C117.948 5.24533 118.3 6.67467 118.3 8.296C118.3 9.85333 117.948 11.24 117.244 12.456C116.561 13.672 115.601 14.6213 114.364 15.304C113.126 15.9867 111.708 16.328 110.108 16.328H105.372V23.336C105.372 23.8053 105.212 24.2 104.892 24.52C104.593 24.84 104.198 25 103.708 25ZM105.372 13.256H110.108C111.089 13.256 111.953 13.0427 112.7 12.616C113.446 12.1893 114.033 11.6027 114.46 10.856C114.886 10.1093 115.1 9.256 115.1 8.296C115.1 7.272 114.886 6.376 114.46 5.608C114.033 4.81867 113.446 4.2 112.7 3.752C111.953 3.304 111.089 3.08 110.108 3.08H105.372V13.256ZM123.613 25C123.144 25 122.749 24.8507 122.429 24.552C122.131 24.232 121.981 23.8373 121.981 23.368V9.128C121.981 8.63733 122.131 8.24266 122.429 7.944C122.749 7.64533 123.144 7.496 123.613 7.496C124.104 7.496 124.499 7.64533 124.797 7.944C125.096 8.24266 125.245 8.63733 125.245 9.128V23.368C125.245 23.8373 125.096 24.232 124.797 24.552C124.499 24.8507 124.104 25 123.613 25ZM123.613 4.648C123.037 4.648 122.536 4.44533 122.109 4.04C121.704 3.61333 121.501 3.112 121.501 2.536C121.501 1.96 121.704 1.46933 122.109 1.064C122.536 0.637333 123.037 0.424 123.613 0.424C124.189 0.424 124.68 0.637333 125.085 1.064C125.512 1.46933 125.725 1.96 125.725 2.536C125.725 3.112 125.512 3.61333 125.085 4.04C124.68 4.44533 124.189 4.648 123.613 4.648ZM137.686 25.128C136.192 25.128 134.806 24.904 133.526 24.456C132.267 23.9867 131.286 23.4 130.582 22.696C130.262 22.3547 130.123 21.9707 130.166 21.544C130.23 21.096 130.443 20.7333 130.806 20.456C131.232 20.1147 131.648 19.976 132.054 20.04C132.48 20.0827 132.843 20.264 133.141 20.584C133.504 20.9893 134.08 21.3733 134.87 21.736C135.68 22.0773 136.576 22.248 137.558 22.248C138.795 22.248 139.734 22.0453 140.374 21.64C141.035 21.2347 141.376 20.712 141.398 20.072C141.419 19.432 141.11 18.8773 140.47 18.408C139.851 17.9387 138.71 17.5547 137.046 17.256C134.891 16.8293 133.323 16.1893 132.342 15.336C131.382 14.4827 130.902 13.4373 130.902 12.2C130.902 11.112 131.222 10.216 131.862 9.512C132.502 8.78667 133.323 8.25333 134.326 7.912C135.328 7.54933 136.374 7.368 137.462 7.368C138.87 7.368 140.118 7.592 141.206 8.04C142.294 8.488 143.158 9.10667 143.798 9.896C144.096 10.2373 144.235 10.6 144.214 10.984C144.192 11.3467 144.011 11.656 143.67 11.912C143.328 12.1467 142.923 12.2213 142.454 12.136C141.984 12.0507 141.59 11.8587 141.27 11.56C140.736 11.048 140.16 10.696 139.542 10.504C138.923 10.312 138.208 10.216 137.398 10.216C136.459 10.216 135.659 10.376 134.998 10.696C134.358 11.016 134.038 11.4853 134.038 12.104C134.038 12.488 134.134 12.84 134.326 13.16C134.539 13.4587 134.944 13.736 135.542 13.992C136.139 14.2267 137.014 14.4613 138.166 14.696C139.766 15.016 141.024 15.4213 141.942 15.912C142.88 16.4027 143.552 16.9787 143.958 17.64C144.363 18.28 144.566 19.0267 144.566 19.88C144.566 20.8613 144.299 21.7467 143.766 22.536C143.254 23.3253 142.486 23.9547 141.462 24.424C140.459 24.8933 139.2 25.128 137.686 25.128ZM155.061 25C153.994 25 153.034 24.7333 152.181 24.2C151.327 23.6453 150.655 22.8987 150.165 21.96C149.674 21.0213 149.429 19.9653 149.429 18.792V3.528C149.429 3.05867 149.578 2.67467 149.877 2.376C150.175 2.07733 150.559 1.928 151.029 1.928C151.498 1.928 151.882 2.07733 152.181 2.376C152.479 2.67467 152.629 3.05867 152.629 3.528V18.792C152.629 19.6453 152.863 20.36 153.333 20.936C153.802 21.512 154.378 21.8 155.061 21.8H156.149C156.533 21.8 156.853 21.9493 157.109 22.248C157.386 22.5467 157.525 22.9307 157.525 23.4C157.525 23.8693 157.343 24.2533 156.981 24.552C156.639 24.8507 156.191 25 155.637 25H155.061ZM147.957 10.888C147.509 10.888 147.146 10.76 146.868 10.504C146.591 10.248 146.453 9.928 146.453 9.544C146.453 9.11733 146.591 8.776 146.868 8.52C147.146 8.264 147.509 8.136 147.957 8.136H155.349C155.797 8.136 156.159 8.264 156.437 8.52C156.714 8.776 156.853 9.11733 156.853 9.544C156.853 9.928 156.714 10.248 156.437 10.504C156.159 10.76 155.797 10.888 155.349 10.888H147.957Z" fill="white"/>
</svg>
